<svg width="50" height="50" viewBox="0 0 50 50" fill="none" xmlns="http://www.w3.org/2000/svg">
<g clip-path="url(#clip0_218_9)">
<path d="M25 50C38.8071 50 50 38.8071 50 25C50 11.1929 38.8071 0 25 0C11.1929 0 0 11.1929 0 25C0 38.8071 11.1929 50 25 50Z" fill="white"/>
<path d="M16.7088 23.3532C16.7088 23.8265 16.7593 24.2102 16.8478 24.4917C16.9489 24.7731 17.0753 25.0801 17.2522 25.4127C17.3154 25.515 17.3407 25.6174 17.3407 25.7069C17.3407 25.8348 17.2649 25.9627 17.1006 26.0907L16.3043 26.6279C16.1906 26.7047 16.0768 26.743 15.9757 26.743C15.8494 26.743 15.723 26.6791 15.5966 26.564C15.4197 26.3721 15.268 26.1674 15.1416 25.9627C15.0152 25.7453 14.8888 25.5022 14.7498 25.208C13.764 26.3849 12.5255 26.9733 11.0341 26.9733C9.9725 26.9733 9.12573 26.6663 8.50645 26.0523C7.88717 25.4383 7.57121 24.6196 7.57121 23.5962C7.57121 22.5089 7.95036 21.6263 8.7213 20.9611C9.49224 20.2959 10.516 19.9633 11.8177 19.9633C12.2474 19.9633 12.6898 20.0017 13.1574 20.0656C13.625 20.1296 14.1053 20.2319 14.6108 20.3471V19.4132C14.6108 18.441 14.4086 17.7631 14.0168 17.3665C13.6124 16.97 12.9299 16.7781 11.9567 16.7781C11.5144 16.7781 11.0594 16.8293 10.5918 16.9444C10.1242 17.0595 9.66918 17.2002 9.22684 17.3793C9.02462 17.4689 8.87296 17.52 8.78449 17.5456C8.69602 17.5712 8.63283 17.584 8.58228 17.584C8.40534 17.584 8.31687 17.4561 8.31687 17.1874V16.5606C8.31687 16.356 8.34215 16.2024 8.40534 16.1129C8.46853 16.0234 8.58228 15.9338 8.75922 15.8443C9.20156 15.614 9.73237 15.4221 10.3517 15.2686C10.9709 15.1023 11.6281 15.0256 12.3232 15.0256C13.8272 15.0256 14.9268 15.371 15.6345 16.0617C16.3296 16.7525 16.6835 17.8014 16.6835 19.2086V23.3532H16.7088ZM11.5776 25.2976C11.9946 25.2976 12.4244 25.2208 12.8793 25.0673C13.3343 24.9138 13.7387 24.6324 14.08 24.2486C14.2822 24.0056 14.4339 23.7369 14.5097 23.4299C14.5855 23.1229 14.6361 22.7519 14.6361 22.317V21.7798C14.2696 21.6902 13.8778 21.6135 13.4733 21.5623C13.0689 21.5111 12.6771 21.4855 12.2853 21.4855C11.4386 21.4855 10.8193 21.6518 10.4022 21.9972C9.98514 22.3426 9.78293 22.8287 9.78293 23.4683C9.78293 24.0695 9.93459 24.5172 10.2505 24.8242C10.5539 25.144 10.9962 25.2976 11.5776 25.2976ZM21.7262 26.6791C21.4987 26.6791 21.3471 26.6407 21.246 26.5512C21.1448 26.4744 21.0564 26.2953 20.9805 26.0523L18.0105 16.1641C17.9347 15.9082 17.8968 15.7419 17.8968 15.6524C17.8968 15.4477 17.9979 15.3326 18.2001 15.3326H19.4387C19.6788 15.3326 19.8431 15.371 19.9316 15.4605C20.0327 15.5373 20.1085 15.7164 20.1843 15.9594L22.3076 24.4277L24.2792 15.9594C24.3424 15.7036 24.4182 15.5373 24.5193 15.4605C24.6204 15.3838 24.7973 15.3326 25.0248 15.3326H26.0359C26.276 15.3326 26.4403 15.371 26.5414 15.4605C26.6425 15.5373 26.731 15.7164 26.7816 15.9594L28.7784 24.53L30.9649 15.9594C31.0407 15.7036 31.1292 15.5373 31.2177 15.4605C31.3188 15.3838 31.4831 15.3326 31.7105 15.3326H32.8859C33.0881 15.3326 33.2019 15.4349 33.2019 15.6524C33.2019 15.7164 33.1892 15.7803 33.1766 15.8571C33.164 15.9338 33.1387 16.0362 33.0881 16.1769L30.0423 26.0651C29.9664 26.3209 29.878 26.4872 29.7769 26.564C29.6758 26.6407 29.5115 26.6919 29.2966 26.6919H28.2097C27.9696 26.6919 27.8053 26.6535 27.7042 26.564C27.6031 26.4744 27.5146 26.3081 27.464 26.0523L25.5051 17.8014L23.5588 26.0395C23.4956 26.2953 23.4198 26.4616 23.3187 26.5512C23.2175 26.6407 23.0406 26.6791 22.8131 26.6791H21.7262ZM37.9666 27.0245C37.3094 27.0245 36.6522 26.9477 36.0202 26.7942C35.3883 26.6407 34.8954 26.4744 34.5668 26.2825C34.3646 26.1674 34.2256 26.0395 34.175 25.9244C34.1245 25.8092 34.0992 25.6813 34.0992 25.5662V24.9138C34.0992 24.6452 34.2003 24.5172 34.3899 24.5172C34.4657 24.5172 34.5415 24.53 34.6174 24.5556C34.6932 24.5812 34.807 24.6324 34.9333 24.6835C35.363 24.8754 35.8307 25.0289 36.3236 25.1313C36.8291 25.2336 37.322 25.2848 37.8275 25.2848C38.6238 25.2848 39.243 25.144 39.6727 24.8626C40.1024 24.5812 40.3299 24.1719 40.3299 23.6474C40.3299 23.2892 40.2162 22.995 39.9887 22.7519C39.7612 22.5089 39.3315 22.2914 38.7122 22.0868L36.8797 21.5111C35.957 21.2169 35.2746 20.782 34.8575 20.2063C34.4404 19.6435 34.2256 19.0167 34.2256 18.3515C34.2256 17.8142 34.3393 17.3409 34.5668 16.9316C34.7943 16.5222 35.0976 16.1641 35.4768 15.8826C35.8559 15.5884 36.2856 15.371 36.7912 15.2175C37.2967 15.064 37.8275 15 38.3836 15C38.6617 15 38.9524 15.0128 39.2304 15.0512C39.5211 15.0895 39.7865 15.1407 40.0519 15.1919C40.3047 15.2558 40.5448 15.3198 40.7723 15.3966C40.9998 15.4733 41.1767 15.5501 41.3031 15.6268C41.48 15.7291 41.6064 15.8315 41.6822 15.9466C41.7581 16.0489 41.796 16.1897 41.796 16.3687V16.97C41.796 17.2386 41.6949 17.3793 41.5053 17.3793C41.4042 17.3793 41.2399 17.3281 41.025 17.2258C40.3047 16.8932 39.4958 16.7269 38.5985 16.7269C37.8781 16.7269 37.3094 16.842 36.9176 17.0851C36.5258 17.3281 36.3236 17.6991 36.3236 18.2236C36.3236 18.5818 36.4499 18.8888 36.7027 19.1318C36.9555 19.3749 37.4231 19.6179 38.0929 19.8354L39.8876 20.411C40.7976 20.7052 41.4548 21.1146 41.8465 21.639C42.2383 22.1635 42.4279 22.7647 42.4279 23.4299C42.4279 23.98 42.3142 24.4789 42.0993 24.9138C41.8718 25.3487 41.5685 25.7325 41.1767 26.0395C40.7849 26.3593 40.3173 26.5895 39.7738 26.7558C39.2051 26.9349 38.6111 27.0245 37.9666 27.0245Z" fill="#252F3E"/>
<path fill-rule="evenodd" clip-rule="evenodd" d="M40.3552 33.2414C36.1972 36.3498 30.156 38 24.9616 38C17.6819 38 11.1226 35.2753 6.16835 30.7469C5.77656 30.3888 6.13043 29.9027 6.59805 30.1841C11.9567 33.3309 18.5666 35.2369 25.404 35.2369C30.017 35.2369 35.085 34.2647 39.7486 32.2692C40.4437 31.9494 41.0377 32.7297 40.3552 33.2414Z" fill="#FF9900"/>
<path fill-rule="evenodd" clip-rule="evenodd" d="M42.0867 31.2458C41.5559 30.5551 38.5732 30.9132 37.2209 31.0795C36.8165 31.1307 36.7533 30.7725 37.1198 30.5039C39.4958 28.8154 43.4011 29.3014 43.8561 29.8643C44.311 30.4399 43.7297 34.3927 41.5053 36.2859C41.1641 36.5801 40.8355 36.4266 40.9871 36.0428C41.4927 34.7764 42.6175 31.9238 42.0867 31.2458Z" fill="#FF9900"/>
</g>
<defs>
<clipPath id="clip0_218_9">
<rect width="50" height="50" fill="white"/>
</clipPath>
</defs>
</svg>
