<svg width="50" height="50" viewBox="0 0 50 50" fill="none" xmlns="http://www.w3.org/2000/svg">
<g clip-path="url(#clip0_108_2)">
<mask id="mask0_108_2" style="mask-type:luminance" maskUnits="userSpaceOnUse" x="0" y="0" width="50" height="50">
<path d="M50 0H0V50H50V0Z" fill="white"/>
</mask>
<g mask="url(#mask0_108_2)">
<path d="M25 50C38.8071 50 50 38.8071 50 25C50 11.1929 38.8071 0 25 0C11.1929 0 0 11.1929 0 25C0 38.8071 11.1929 50 25 50Z" fill="#1D6BC3"/>
<path d="M38 12H13L13.5864 17.968H25.5224L13.9594 22.4291L14.5099 28.412H30.7474L30.2341 34.38L25.5224 35.8571L20.839 34.3562L20.3496 31.396H14.7844L15.4693 38.8367L25.5224 41.8251L35.5606 38.8352L37.0391 22.4291H25.5612L37.4584 17.968L38 12Z" fill="white"/>
</g>
</g>
<defs>
<clipPath id="clip0_108_2">
<rect width="50" height="50" fill="white"/>
</clipPath>
</defs>
</svg>
