<svg width="50" height="50" viewBox="0 0 50 50" fill="none" xmlns="http://www.w3.org/2000/svg">
<g clip-path="url(#clip0_108_9)">
<mask id="mask0_108_9" style="mask-type:luminance" maskUnits="userSpaceOnUse" x="0" y="0" width="50" height="50">
<path d="M50 0H0V50H50V0Z" fill="white"/>
</mask>
<g mask="url(#mask0_108_9)">
<path d="M25 50C38.8071 50 50 38.8071 50 25C50 11.1929 38.8071 0 25 0C11.1929 0 0 11.1929 0 25C0 38.8071 11.1929 50 25 50Z" fill="#006BC0"/>
<path d="M45.0058 22.4011C44.9037 22.3205 43.9312 21.5845 41.879 21.5845C41.3364 21.5845 40.7991 21.6328 40.2619 21.7241C39.8643 19.0057 37.6186 17.6787 37.5166 17.6196L36.9686 17.3026L36.6087 17.8237C36.1574 18.5275 35.8243 19.3012 35.6309 20.1124C35.2656 21.665 35.4859 23.1209 36.2757 24.3674C35.3248 24.8992 33.7936 25.0282 33.4874 25.039H8.19941C7.53857 25.039 7.00136 25.5762 7.00136 26.2316C6.97451 28.445 7.34521 30.6478 8.1081 32.7269C8.97841 35.0102 10.2731 36.6917 11.9601 37.7231C13.8513 38.8782 16.9188 39.5391 20.4002 39.5391C21.9743 39.5444 23.5431 39.3994 25.085 39.1146C27.2336 38.7228 29.3006 37.9708 31.1987 36.8904C32.7638 35.9818 34.1731 34.8283 35.3731 33.4736C37.377 31.2064 38.5697 28.6814 39.4561 26.4357H39.8107C42.0026 26.4357 43.3512 25.5601 44.0979 24.824C44.593 24.3553 44.9783 23.7829 45.2262 23.1479L45.3819 22.6858L45.0058 22.4011Z" fill="white"/>
<path d="M10.5418 24.2976H13.9317C14.0929 24.2976 14.2272 24.1633 14.2272 24.0021V20.9828C14.2272 20.8217 14.0983 20.6873 13.9317 20.6873H10.5418C10.3807 20.6873 10.2463 20.8216 10.2463 20.9828V24.0021C10.2463 24.1632 10.3807 24.2976 10.5418 24.2976ZM15.2104 24.2976H18.6004C18.7615 24.2976 18.8959 24.1633 18.8959 24.0021V20.9828C18.8959 20.8217 18.767 20.6873 18.6004 20.6873H15.2104C15.1716 20.6872 15.1331 20.6948 15.0972 20.7096C15.0613 20.7244 15.0287 20.7461 15.0012 20.7736C14.9738 20.8011 14.952 20.8337 14.9372 20.8696C14.9224 20.9055 14.9148 20.944 14.9149 20.9828V24.0021C14.9149 24.1632 15.0492 24.2976 15.2104 24.2976ZM19.9542 24.2976H23.3441C23.5053 24.2976 23.6396 24.1633 23.6396 24.0021V20.9828C23.6396 20.8217 23.5107 20.6873 23.3441 20.6873H19.9542C19.7931 20.6873 19.6587 20.8216 19.6587 20.9828V24.0021C19.6586 24.0409 19.6662 24.0794 19.681 24.1152C19.6958 24.1511 19.7176 24.1837 19.745 24.2112C19.7725 24.2387 19.8051 24.2604 19.841 24.2752C19.8769 24.2901 19.9154 24.2976 19.9542 24.2976ZM24.639 24.2976H28.0289C28.19 24.2976 28.3244 24.1633 28.3244 24.0021V20.9828C28.3245 20.944 28.317 20.9055 28.3022 20.8696C28.2873 20.8337 28.2656 20.8011 28.2381 20.7736C28.2106 20.7461 28.178 20.7244 28.1421 20.7096C28.1062 20.6948 28.0677 20.6872 28.0289 20.6873H24.639C24.4778 20.6873 24.3435 20.8216 24.3435 20.9828V24.0021C24.3433 24.0409 24.3509 24.0794 24.3657 24.1153C24.3805 24.1512 24.4023 24.1838 24.4298 24.2112C24.4572 24.2387 24.4899 24.2605 24.5257 24.2753C24.5616 24.2901 24.6001 24.2977 24.639 24.2976ZM15.2104 19.9566H18.6004C18.7615 19.9566 18.8959 19.8224 18.8959 19.6611V16.6418C18.8959 16.4807 18.7616 16.3463 18.6004 16.3463H15.2104C15.0493 16.3463 14.9149 16.4806 14.9149 16.6418V19.6611C14.9149 19.8224 15.0492 19.9566 15.2104 19.9566ZM19.9542 19.9566H23.3441C23.5053 19.9566 23.6396 19.8224 23.6396 19.6611V16.6418C23.6396 16.4807 23.5054 16.3463 23.3441 16.3463H19.9542C19.7931 16.3463 19.6587 16.4806 19.6587 16.6418V19.6611C19.6586 19.7 19.6662 19.7384 19.681 19.7743C19.6958 19.8102 19.7175 19.8429 19.745 19.8703C19.7725 19.8978 19.8051 19.9195 19.841 19.9344C19.8769 19.9492 19.9154 19.9567 19.9542 19.9566ZM24.639 19.9566H28.0289C28.0677 19.9568 28.1062 19.9492 28.1421 19.9344C28.178 19.9196 28.2106 19.8978 28.2381 19.8703C28.2656 19.8429 28.2873 19.8103 28.3022 19.7744C28.317 19.7385 28.3245 19.7 28.3244 19.6611V16.6418C28.3244 16.4807 28.1901 16.3463 28.0289 16.3463H24.639C24.4778 16.3463 24.3435 16.4806 24.3435 16.6418V19.6611C24.3433 19.7 24.3509 19.7385 24.3657 19.7744C24.3805 19.8103 24.4023 19.8429 24.4297 19.8703C24.4572 19.8978 24.4898 19.9196 24.5257 19.9344C24.5616 19.9492 24.6001 19.9568 24.639 19.9566ZM24.639 15.6104H28.0289C28.19 15.6104 28.3244 15.4761 28.3244 15.3148V12.2955C28.3244 12.1344 28.1901 12 28.0289 12H24.639C24.4778 12 24.3435 12.1343 24.3435 12.2955V15.3148C24.3435 15.4814 24.4725 15.6104 24.639 15.6104ZM29.3613 24.2976H32.7514C32.9125 24.2976 33.0469 24.1633 33.0469 24.0021V20.9828C33.047 20.944 33.0394 20.9055 33.0246 20.8696C33.0098 20.8337 32.988 20.8011 32.9606 20.7736C32.9331 20.7461 32.9005 20.7244 32.8646 20.7096C32.8287 20.6948 32.7902 20.6872 32.7514 20.6873H29.3613C29.2002 20.6873 29.0658 20.8216 29.0658 20.9828V24.0021C29.0658 24.1632 29.2001 24.2976 29.3613 24.2976Z" fill="white"/>
</g>
</g>
<defs>
<clipPath id="clip0_108_9">
<rect width="50" height="50" fill="white"/>
</clipPath>
</defs>
</svg>
