<svg width="50" height="50" viewBox="0 0 50 50" fill="none" xmlns="http://www.w3.org/2000/svg">
<g clip-path="url(#clip0_108_17)">
<mask id="mask0_108_17" style="mask-type:luminance" maskUnits="userSpaceOnUse" x="0" y="0" width="50" height="50">
<path d="M50 0H0V50H50V0Z" fill="white"/>
</mask>
<g mask="url(#mask0_108_17)">
<path d="M25 50C38.8071 50 50 38.8071 50 25C50 11.1929 38.8071 0 25 0C11.1929 0 0 11.1929 0 25C0 38.8071 11.1929 50 25 50Z" fill="#2E2E2E"/>
<path d="M41.3297 34.5167L42 34.3548L34.7745 25.1108L41.3698 16.7552L40.7295 16.5778C40.0972 16.4026 39.5326 16.3899 39.0183 16.585C38.5132 16.7767 38.1229 17.1443 37.7823 17.6023L33.224 23.3754L28.6994 17.5715C28.3097 17.0336 27.8631 16.6935 27.3181 16.5381C26.7876 16.3869 26.2213 16.4281 25.6314 16.5371L24.9009 16.6721L31.7153 25.1022L24.4584 34.3552L25.1121 34.5229C25.7685 34.6913 26.3403 34.6859 26.8538 34.4737C27.3551 34.2664 27.7368 33.8878 28.0722 33.4349L33.2161 26.8257L38.2379 33.4082C38.5995 33.922 39.0166 34.3037 39.5524 34.4978C40.09 34.6927 40.6786 34.674 41.3297 34.5167Z" fill="white"/>
<path fill-rule="evenodd" clip-rule="evenodd" d="M8.4673 22.147C8.4673 22.147 7.9975 23.4972 8.00001 25.6839C8.00001 28.0313 8.47177 29.3433 8.47177 29.3433C8.47177 29.3433 8.92872 31.1815 10.4326 32.654C12.953 35.183 17.6797 35.7501 20.9979 33.9496C23.258 32.7254 24.3094 30.7677 24.7676 28.5047L24.8458 28.1182L24.4494 28.0037C23.9965 27.8729 23.5215 27.8007 23.1 27.9832C22.6605 28.1734 22.4187 28.5757 22.2646 29.0561L22.2641 29.0576C21.7416 30.7072 20.722 31.9664 19.0253 32.5078C16.478 33.3198 14.2637 32.9178 12.7151 31.7133C11.2429 30.5683 10.3083 28.6479 10.3025 26.1886H24.9316L24.9492 25.7686C25.0803 22.6288 24.4236 19.712 21.6598 17.6467L21.6587 17.6459C16.9317 14.1361 10.1238 16.5217 8.47177 22.1318L8.4673 22.147ZM22.6247 24.1395H10.3677C10.5326 22.374 11.2208 20.9183 12.2635 19.8879C13.3916 18.7729 14.9593 18.1309 16.8068 18.1447C19.9527 18.1661 22.3664 20.5572 22.6247 24.1395Z" fill="white"/>
</g>
</g>
<defs>
<clipPath id="clip0_108_17">
<rect width="50" height="50" fill="white"/>
</clipPath>
</defs>
</svg>
