<svg width="50" height="50" viewBox="0 0 50 50" fill="none" xmlns="http://www.w3.org/2000/svg">
<path d="M25 50C38.8071 50 50 38.8071 50 25C50 11.1929 38.8071 0 25 0C11.1929 0 0 11.1929 0 25C0 38.8071 11.1929 50 25 50Z" fill="white"/>
<path d="M24.0183 28.1775C23.8253 28.1775 23.6402 28.1009 23.5035 27.9646L22.4171 26.881C22.3473 26.8139 22.2917 26.7335 22.2534 26.6446C22.215 26.5557 22.1948 26.46 22.1938 26.3632C22.1928 26.2664 22.2111 26.1704 22.2477 26.0807C22.2842 25.991 22.3382 25.9096 22.4066 25.841C22.475 25.7724 22.5563 25.7182 22.6459 25.6814C22.7354 25.6446 22.8314 25.626 22.9282 25.6267C23.025 25.6274 23.1207 25.6474 23.2097 25.6855C23.2988 25.7236 23.3793 25.779 23.4467 25.8485L24.0183 26.4187L25.7406 24.6979C25.8773 24.561 26.0629 24.484 26.2564 24.4839C26.4498 24.4837 26.6355 24.5605 26.7724 24.6972C26.9093 24.8339 26.9863 25.0194 26.9864 25.2129C26.9866 25.4064 26.9098 25.592 26.7731 25.729L24.5346 27.9646C24.3972 28.1007 24.2117 28.1772 24.0183 28.1775ZM37.6581 27.9631L39.8952 25.729C40.028 25.5914 40.1015 25.4072 40.0999 25.2161C40.0982 25.0249 40.0215 24.842 39.8863 24.7068C39.7511 24.5716 39.5682 24.4949 39.3771 24.4933C39.1859 24.4916 39.0017 24.5651 38.8642 24.6979L37.1419 26.4187L36.5702 25.8485C36.5028 25.779 36.4223 25.7236 36.3333 25.6855C36.2443 25.6474 36.1486 25.6274 36.0518 25.6267C35.9549 25.626 35.8589 25.6446 35.7694 25.6814C35.6798 25.7182 35.5985 25.7724 35.5301 25.841C35.4618 25.9096 35.4077 25.991 35.3712 26.0807C35.3347 26.1704 35.3164 26.2664 35.3173 26.3632C35.3183 26.46 35.3386 26.5557 35.3769 26.6446C35.4152 26.7335 35.4709 26.8139 35.5406 26.881L36.6285 27.9646C36.696 28.0325 36.7763 28.0863 36.8647 28.123C36.9531 28.1597 37.0479 28.1786 37.1436 28.1784C37.2394 28.1783 37.3341 28.1592 37.4224 28.1222C37.5107 28.0853 37.5908 28.0312 37.6581 27.9631ZM14.6019 18.8675L18.3308 16.556C18.5414 16.4258 18.7153 16.244 18.8362 16.028C18.957 15.8119 19.0209 15.5686 19.0218 15.3211C19.0227 15.0735 18.9605 14.8298 18.8412 14.6129C18.7218 14.396 18.5492 14.213 18.3396 14.0813L14.6106 11.7333C14.39 11.5944 14.1362 11.5171 13.8755 11.5095C13.6149 11.502 13.357 11.5645 13.1287 11.6904C12.9004 11.8164 12.7101 12.0013 12.5775 12.2258C12.445 12.4504 12.375 12.7063 12.375 12.9671V17.6279C12.3754 17.8876 12.4451 18.1425 12.5769 18.3663C12.7087 18.5901 12.8979 18.7747 13.1248 18.901C13.3517 19.0273 13.6082 19.0908 13.8679 19.0849C14.1275 19.079 14.3809 19.004 14.6019 18.8675ZM17.5623 15.315L13.8333 17.6279V12.9671L17.5623 15.315ZM43 26.2292C43 29.0437 40.7104 31.3333 37.8958 31.3333C36.6697 31.331 35.4854 30.8877 34.559 30.0845C33.6326 29.2813 33.026 28.1717 32.85 26.9583H29.8167C29.6406 28.1717 29.034 29.2813 28.1076 30.0845C27.1813 30.8877 25.9969 31.331 24.7708 31.3333C23.5447 31.3313 22.3601 30.8882 21.4337 30.0849C20.5073 29.2816 19.9008 28.1718 19.725 26.9583H18.9112C17.4937 26.9583 16.2133 26.3765 15.2917 25.4388V32.7917C15.2917 35.2037 17.2546 37.1667 19.6667 37.1667H19.725C20.0808 34.6977 22.2042 32.7917 24.7708 32.7917C27.5854 32.7917 29.875 35.0812 29.875 37.8958C29.875 40.7104 27.5854 43 24.7708 43C23.5447 42.998 22.3601 42.5548 21.4337 41.7516C20.5073 40.9483 19.9008 39.8385 19.725 38.625H19.6667C16.4496 38.625 13.8333 36.0087 13.8333 32.7917V22.436C12.1876 22.0979 10.7088 21.2026 9.64618 19.9012C8.58358 18.5998 8.00218 16.9718 8 15.2917C8 11.271 11.271 8 15.2917 8C19.3123 8 22.5833 11.271 22.5833 15.2917C22.5808 17.2124 21.8212 19.0547 20.4693 20.4191C19.1175 21.7835 17.2823 22.5601 15.3617 22.5804C15.5238 23.4028 15.9663 24.1434 16.6136 24.6759C17.261 25.2083 18.073 25.4996 18.9112 25.5H19.725C20.0808 23.031 22.2042 21.125 24.7708 21.125C25.997 21.127 27.1815 21.5702 28.108 22.3734C29.0344 23.1767 29.6409 24.2865 29.8167 25.5H32.85C33.026 24.2866 33.6326 23.177 34.559 22.3738C35.4854 21.5706 36.6697 21.1273 37.8958 21.125C40.7104 21.125 43 23.4146 43 26.2292ZM21.125 37.8958C21.125 39.9054 22.7612 41.5417 24.7708 41.5417C26.7804 41.5417 28.4167 39.9054 28.4167 37.8958C28.4167 35.8862 26.7804 34.25 24.7708 34.25C22.7612 34.25 21.125 35.8862 21.125 37.8958ZM15.2917 21.125C18.5087 21.125 21.125 18.5087 21.125 15.2917C21.125 12.0746 18.5087 9.45833 15.2917 9.45833C12.0746 9.45833 9.45833 12.0746 9.45833 15.2917C9.45833 18.5087 12.0746 21.125 15.2917 21.125ZM28.4167 26.2292C28.4167 24.2196 26.7804 22.5833 24.7708 22.5833C22.7612 22.5833 21.125 24.2196 21.125 26.2292C21.125 28.2387 22.7612 29.875 24.7708 29.875C26.7804 29.875 28.4167 28.2387 28.4167 26.2292ZM41.5417 26.2292C41.5417 24.2196 39.9054 22.5833 37.8958 22.5833C35.8862 22.5833 34.25 24.2196 34.25 26.2292C34.25 28.2387 35.8862 29.875 37.8958 29.875C39.9054 29.875 41.5417 28.2387 41.5417 26.2292ZM22.5833 37.8958C22.5833 38.0892 22.6602 38.2747 22.7969 38.4114C22.9336 38.5482 23.1191 38.625 23.3125 38.625C23.5059 38.625 23.6914 38.5482 23.8281 38.4114C23.9648 38.2747 24.0417 38.0892 24.0417 37.8958C24.0417 37.7024 23.9648 37.517 23.8281 37.3802C23.6914 37.2435 23.5059 37.1667 23.3125 37.1667C23.1191 37.1667 22.9336 37.2435 22.7969 37.3802C22.6602 37.517 22.5833 37.7024 22.5833 37.8958ZM25.5 37.8958C25.5 38.0892 25.5768 38.2747 25.7136 38.4114C25.8503 38.5482 26.0358 38.625 26.2292 38.625C26.4225 38.625 26.608 38.5482 26.7448 38.4114C26.8815 38.2747 26.9583 38.0892 26.9583 37.8958C26.9583 37.7024 26.8815 37.517 26.7448 37.3802C26.608 37.2435 26.4225 37.1667 26.2292 37.1667C26.0358 37.1667 25.8503 37.2435 25.7136 37.3802C25.5768 37.517 25.5 37.7024 25.5 37.8958Z" fill="#2088FF"/>
<path fill-rule="evenodd" clip-rule="evenodd" d="M43 37.8958C43 40.7104 40.7104 43 37.8958 43C36.6693 42.9975 35.4846 42.5539 34.5582 41.7501C33.6317 40.9463 33.0254 39.836 32.85 38.6221C32.8458 38.6227 32.8418 38.6241 32.8377 38.6254C32.832 38.6274 32.8262 38.6294 32.8194 38.6294L32.0815 38.6542H32.0567C31.8686 38.6493 31.6897 38.572 31.5573 38.4383C31.425 38.3047 31.3494 38.125 31.3464 37.9369C31.3434 37.7488 31.4131 37.5668 31.5412 37.429C31.6692 37.2912 31.8455 37.2081 32.0333 37.1973L32.7712 37.1725C32.7868 37.1708 32.8019 37.1742 32.8168 37.1775C32.8269 37.1798 32.837 37.1821 32.8471 37.1827C33.0197 35.9659 33.6252 34.8521 34.5525 34.0456C35.4798 33.239 36.6668 32.7939 37.8958 32.7917C40.7104 32.7917 43 35.0812 43 37.8958ZM37.8958 34.25C39.9054 34.25 41.5417 35.8862 41.5417 37.8958C41.5417 39.9054 39.9054 41.5417 37.8958 41.5417C35.8862 41.5417 34.25 39.9054 34.25 37.8958C34.25 35.8862 35.8862 34.25 37.8958 34.25Z" fill="#79B8FF"/>
</svg>
