<svg width="50" height="50" viewBox="0 0 50 50" fill="none" xmlns="http://www.w3.org/2000/svg">
<g clip-path="url(#clip0_108_25)">
<mask id="mask0_108_25" style="mask-type:luminance" maskUnits="userSpaceOnUse" x="0" y="0" width="50" height="50">
<path d="M50 0H0V50H50V0Z" fill="white"/>
</mask>
<g mask="url(#mask0_108_25)">
<path d="M25 50C38.8071 50 50 38.8071 50 25C50 11.1929 38.8071 0 25 0C11.1929 0 0 11.1929 0 25C0 38.8071 11.1929 50 25 50Z" fill="#F15233"/>
<path d="M41.3587 23.4855L26.5141 8.64134C25.6594 7.78622 24.2729 7.78622 23.4175 8.64134L20.3352 11.7244L24.2452 15.6344C25.1539 15.3273 26.1959 15.5334 26.92 16.2579C27.6486 16.9868 27.8528 18.0377 27.5379 18.9498L31.3069 22.7184C32.219 22.4039 33.2705 22.6074 33.9987 23.3368C35.0163 24.3543 35.0163 26.0031 33.9987 27.0214C32.9805 28.0394 31.3317 28.0394 30.313 27.0214C29.5478 26.2555 29.3584 25.1306 29.7465 24.1878L26.2314 20.673V29.9224C26.4793 30.0452 26.7135 30.2088 26.92 30.4153C27.9375 31.4328 27.9375 33.0816 26.92 34.1003C25.9025 35.1175 24.2526 35.1175 23.2358 34.1003C22.2182 33.0813 22.2182 31.4325 23.2358 30.4153C23.4874 30.164 23.7786 29.9738 24.0894 29.8465V20.5109C23.7786 20.3836 23.4881 20.1953 23.2358 19.9422C22.465 19.1718 22.2797 18.0403 22.6748 17.0937L18.8204 13.2385L8.64133 23.4167C7.78622 24.2725 7.78622 25.659 8.64133 26.5141L23.4866 41.3587C24.3414 42.2138 25.7274 42.2138 26.5833 41.3587L41.3587 26.583C42.2138 25.7278 42.2138 24.3406 41.3587 23.4855Z" fill="white"/>
</g>
</g>
<defs>
<clipPath id="clip0_108_25">
<rect width="50" height="50" fill="white"/>
</clipPath>
</defs>
</svg>
