<svg width="50" height="50" viewBox="0 0 50 50" fill="none" xmlns="http://www.w3.org/2000/svg">
<g clip-path="url(#clip0_108_32)">
<mask id="mask0_108_32" style="mask-type:luminance" maskUnits="userSpaceOnUse" x="0" y="0" width="50" height="50">
<path d="M50 0H0V50H50V0Z" fill="white"/>
</mask>
<g mask="url(#mask0_108_32)">
<path d="M25 50C38.8071 50 50 38.8071 50 25C50 11.1929 38.8071 0 25 0C11.1929 0 0 11.1929 0 25C0 38.8071 11.1929 50 25 50Z" fill="#D34A47"/>
<path d="M29.8965 43.7941L30.2802 37.3993L31.3399 35.5904C31.3399 35.5904 28.9281 36.577 24.8903 36.577C20.8524 36.577 18.4771 35.6086 18.4771 35.6086L19.6647 37.5819L20.0848 43.7941C20.0848 44.4602 22.2812 45 24.9907 45C27.7 45 29.8965 44.4602 29.8965 43.7941ZM28.6859 13.9312L29.4914 10.7472L33.9522 6.05335L32.7765 5.05194L28.0538 10.052L27.1185 13.8561C26.4146 13.8325 25.7103 13.8208 25.006 13.8209C20.0322 13.8209 16 14.3878 16 15.0869C16 15.786 20.0322 16.3528 25.006 16.3528C29.9798 16.3528 34.0119 15.786 34.0119 15.0869C34.0119 14.5721 31.8251 14.129 28.6859 13.9312Z" fill="white"/>
<path d="M28.2173 15.7143C28.2173 15.7143 28.0429 15.7534 27.5297 15.7556C27.0163 15.7577 26.6519 15.7522 26.5067 15.62C26.4677 15.5845 26.4463 15.514 26.4465 15.4663C26.4469 15.3754 26.5114 15.3219 26.5936 15.2883L26.6713 15.4103C26.6375 15.4219 26.6182 15.4357 26.6181 15.4504C26.6179 15.5194 27.143 15.5667 27.5447 15.5616C27.9464 15.5566 28.4318 15.5235 28.4322 15.4555C28.4322 15.4349 28.3955 15.4156 28.3317 15.4003L28.409 15.2792C28.5131 15.3115 28.604 15.374 28.6038 15.482C28.6028 15.6658 28.369 15.6937 28.2173 15.7143Z" fill="white"/>
<path d="M33.9435 6.0626C34.0556 5.93305 33.8854 5.60167 33.5633 5.32256C33.241 5.04358 32.8889 4.92238 32.7765 5.05193C32.6643 5.18148 32.8346 5.51286 33.1568 5.79183C33.4789 6.07087 33.8312 6.19222 33.9435 6.0626ZM29.6819 28.1741C29.5762 27.157 31.9068 25.6838 31.3087 25.6366C30.0211 25.7102 29.3802 27.1456 28.7324 28.6488C28.495 29.1998 27.6827 31.5491 27.1499 31.2599C26.6173 30.9708 27.8405 29.0389 28.1833 27.8916C27.7877 28.1817 26.337 29.3088 25.9631 28.2533C25.362 28.7638 24.0776 29.0403 24.2225 27.6993C23.9027 28.2658 23.185 29.0566 22.3236 28.728C21.1922 28.2965 22.9791 24.6928 23.4234 24.8746C23.8678 25.0563 23.3337 25.8773 23.1939 26.1961C22.8862 26.8976 22.5309 27.7796 22.7683 27.9601C23.175 28.2695 24.2817 26.79 24.3063 26.7575C24.5133 26.484 25.103 24.695 25.5783 24.9004C26.0535 25.1058 24.3928 27.468 25.0137 27.9367C25.139 28.0314 25.6514 27.8784 25.9631 27.5412C26.1648 27.323 26.0954 26.8398 26.7677 25.2365C27.44 23.6333 28.0392 21.6367 28.5002 21.7888C28.9613 21.9409 28.5813 22.9656 28.4159 23.3476C27.6397 25.1406 26.2975 28.1026 26.9305 27.8784C27.5635 27.6542 27.8931 27.6411 28.5129 26.9157C29.1327 26.1904 29.1042 24.9957 29.5173 25.0211C29.9305 25.0465 29.8612 25.4296 29.761 25.7213C30.1676 25.256 31.6884 24.276 32.0556 25.2466C32.4905 26.3956 29.8797 28.0554 30.5306 27.9708C31.1653 27.8882 32.1935 27.237 32.6325 26.6449L33.8409 15.7811C33.8409 15.7811 32.625 16.7874 24.8891 16.7874C17.1531 16.7874 16.0629 15.802 16.0629 15.802L17.0917 25.7181C17.6378 24.1661 18.9345 21.0269 20.9785 21.1322C21.9082 21.1802 23.1495 22.9705 22.0862 23.0312C21.6362 23.0568 21.5905 22.1375 21.0576 22.0025C20.6731 21.9051 20.1377 22.2177 19.7916 22.5565C19.1016 23.2318 17.6175 25.8963 17.8136 27.2247C18.0634 28.9183 20.1506 26.6362 20.5038 25.9587C20.7525 25.4814 20.9205 24.0674 21.4644 24.2157C22.0085 24.3641 21.417 25.8234 21.0227 27.1136C20.5797 28.5624 20.3468 30.0906 19.7916 29.9148C19.2364 29.7391 20.1408 27.8689 20.1081 27.5412C19.5862 28.0227 18.6248 29.2417 17.3947 28.6383L18.0336 34.7961C18.0336 34.7961 19.7318 36.1378 24.8471 36.1378C29.9625 36.1378 31.7235 34.817 31.7235 34.817L32.5168 27.6849C31.8677 28.3169 29.8134 29.4393 29.6819 28.1741Z" fill="white"/>
</g>
</g>
<defs>
<clipPath id="clip0_108_32">
<rect width="50" height="50" fill="white"/>
</clipPath>
</defs>
</svg>
