<svg width="50" height="50" viewBox="0 0 50 50" fill="none" xmlns="http://www.w3.org/2000/svg">
<g clip-path="url(#clip0_108_48)">
<mask id="mask0_108_48" style="mask-type:luminance" maskUnits="userSpaceOnUse" x="0" y="0" width="50" height="50">
<path d="M50 0H0V50H50V0Z" fill="white"/>
</mask>
<g mask="url(#mask0_108_48)">
<path d="M0 25C0 11.1929 11.1929 0 25 0C38.8071 0 50 11.1929 50 25C50 38.8071 38.8071 50 25 50C11.1929 50 0 38.8071 0 25Z" fill="#FFDF00"/>
<path d="M30.7337 35.2967C31.5589 36.6321 32.6326 37.6137 34.5315 37.6137C36.1267 37.6137 37.1457 36.8235 37.1457 35.7317C37.1457 34.4232 36.0987 33.9599 34.3429 33.1987L33.3804 32.7894C30.6023 31.6163 28.7568 30.1468 28.7568 27.0402C28.7568 24.1785 30.9568 22 34.3949 22C36.8427 22 38.6024 22.8443 39.8705 25.0551L36.8726 26.9629C36.2125 25.7898 35.5004 25.3277 34.3949 25.3277C33.2673 25.3277 32.5526 26.0367 32.5526 26.9629C32.5526 28.1076 33.2679 28.571 34.9197 29.28L35.8821 29.6886C39.1532 31.0788 41 32.4961 41 35.6826C41 39.118 38.2771 41 34.6205 41C31.0451 41 28.7352 39.3113 27.605 37.098L30.7337 35.2967ZM17.1338 35.6273C17.7386 36.6908 18.2888 37.5899 19.6115 37.5899C20.8763 37.5899 21.6743 37.0994 21.6743 35.1923V22.2179H25.5241V35.2438C25.5241 39.1947 23.1869 40.9929 19.7754 40.9929C16.6929 40.9929 14.9079 39.4119 14 37.5076L17.1338 35.6273Z" fill="black"/>
</g>
</g>
<defs>
<clipPath id="clip0_108_48">
<rect width="50" height="50" fill="white"/>
</clipPath>
</defs>
</svg>
