<svg width="50" height="50" viewBox="0 0 50 50" fill="none" xmlns="http://www.w3.org/2000/svg">
<g clip-path="url(#clip0_111_43)">
<path d="M25 50C38.8071 50 50 38.8071 50 25C50 11.1929 38.8071 0 25 0C11.1929 0 0 11.1929 0 25C0 38.8071 11.1929 50 25 50Z" fill="white"/>
<path d="M20.2155 17.285L20.3155 19.585L18.7155 22.585L16.2155 27.485L15.7155 31.585L17.5155 37.385L21.6155 39.685H27.8155L33.6155 35.285L36.2155 28.385L30.2155 21.085L28.5155 16.985L20.2155 17.285Z" fill="#ECEFF1"/>
<path d="M34.4155 22.985C32.8155 20.685 31.5155 19.285 30.8155 16.385C30.1155 13.485 31.0155 14.285 30.4155 11.785C30.1155 10.485 29.6155 9.58501 29.1155 8.88501C28.5155 8.18501 27.8155 7.78501 27.4155 7.68501C26.5155 7.18501 24.4155 6.38501 21.8155 7.78501C19.1155 9.18501 19.4155 12.185 19.9155 18.285C19.9155 18.685 19.8155 19.185 19.6155 19.585C19.2155 20.485 18.5155 21.285 17.9155 21.985C17.2155 22.985 16.5155 23.985 16.0155 25.085C14.8155 27.385 13.7155 30.285 14.0155 31.385C14.5155 31.285 20.8155 40.885 20.8155 41.085C21.2155 40.985 22.9155 40.985 24.4155 40.985C26.5155 40.885 27.7155 40.785 29.4155 41.185C29.4155 40.885 29.3155 40.585 29.3155 40.285C29.3155 39.685 29.4155 39.185 29.5155 38.485C29.6155 37.985 29.7155 37.485 29.8155 36.885C28.8155 37.785 27.0155 38.785 25.3155 39.085C23.8155 39.385 21.3155 38.885 20.1155 37.385C20.2155 37.385 20.4155 37.385 20.5155 37.285C20.8155 37.185 21.1155 37.085 21.2155 36.885C21.5155 36.385 21.3155 35.885 21.1155 35.585C20.9155 35.285 19.4155 34.185 18.7155 33.585C18.0155 32.985 17.6155 32.685 17.2155 32.285C17.2155 32.285 16.6155 31.685 16.4155 31.485C16.2155 31.285 16.1155 31.085 16.0155 30.985C15.8155 30.485 15.7155 29.885 15.8155 29.085C15.9155 27.985 16.3155 27.085 16.8155 26.085C17.0155 25.685 17.5155 24.885 17.5155 24.885C17.5155 24.885 15.8155 29.085 16.7155 30.385C16.7155 30.385 16.8155 29.085 17.2155 27.785C17.5155 26.885 18.0155 25.585 18.6155 24.885C19.2155 24.185 20.7155 21.585 20.8155 19.985C20.8155 19.285 20.9155 18.585 20.9155 18.085C20.5155 17.685 27.5155 16.685 27.9155 17.785C28.0155 18.185 29.4155 21.785 30.2155 23.685C30.6155 24.585 31.1155 25.385 31.4155 26.385C31.7155 27.485 31.9155 28.985 31.9155 30.485C31.9155 30.785 31.9155 31.285 31.8155 31.785C32.0155 31.785 35.9155 27.585 31.3155 24.085C31.3155 24.085 34.1155 25.385 34.2155 27.985C34.3155 30.085 33.4155 31.785 33.2155 32.085C33.3155 32.085 35.3155 32.985 35.4155 32.985C35.8155 32.985 36.6155 32.685 36.6155 32.685C36.7155 32.385 37.0155 31.585 37.0155 31.285C37.7155 28.985 36.0155 25.285 34.4155 22.985Z" fill="#263238"/>
<path d="M21.7155 16.385C22.4334 16.385 23.0155 15.4896 23.0155 14.385C23.0155 13.2804 22.4334 12.385 21.7155 12.385C20.9975 12.385 20.4155 13.2804 20.4155 14.385C20.4155 15.4896 20.9975 16.385 21.7155 16.385Z" fill="#ECEFF1"/>
<path d="M26.2155 16.585C27.1544 16.585 27.9155 15.5553 27.9155 14.285C27.9155 13.0148 27.1544 11.985 26.2155 11.985C25.2766 11.985 24.5155 13.0148 24.5155 14.285C24.5155 15.5553 25.2766 16.585 26.2155 16.585Z" fill="#ECEFF1"/>
<path d="M22.4417 14.5219C22.3586 13.8644 21.9803 13.3706 21.5968 13.4191C21.2132 13.4676 20.9697 14.0399 21.0528 14.6974C21.1359 15.3549 21.5142 15.8486 21.8977 15.8002C22.2813 15.7517 22.5248 15.1794 22.4417 14.5219Z" fill="#212121"/>
<path d="M26.1155 15.985C26.6678 15.985 27.1155 15.403 27.1155 14.685C27.1155 13.967 26.6678 13.385 26.1155 13.385C25.5632 13.385 25.1155 13.967 25.1155 14.685C25.1155 15.403 25.5632 15.985 26.1155 15.985Z" fill="#212121"/>
<path d="M39.4155 36.685C39.0155 36.485 38.3155 36.185 37.7155 35.285C37.4155 34.785 37.5155 33.385 37.0155 32.785C36.7155 32.385 36.3155 32.585 36.2155 32.585C35.3155 32.785 33.2155 34.185 31.8155 32.585C31.6155 32.385 31.3155 32.085 30.8155 32.085C30.3155 32.085 30.1155 32.285 29.9155 32.685C29.7155 33.085 29.7155 33.385 29.7155 34.385C29.7155 35.185 29.7155 36.085 29.6155 36.785C29.4155 38.485 29.1155 39.485 29.1155 40.485C29.1155 41.585 29.4155 42.285 29.8155 42.585C30.1155 42.885 30.6155 43.085 31.7155 43.085C32.8155 43.085 33.5155 42.685 34.2155 41.985C34.7155 41.485 35.1155 41.285 36.5155 40.285C37.6155 39.585 39.3155 38.685 39.6155 38.385C39.8155 38.185 40.1155 38.085 40.1155 37.485C40.1155 36.985 39.7155 36.785 39.4155 36.685Z" fill="#FFC107"/>
<path d="M19.3155 36.985C18.3155 35.385 18.2155 35.085 17.5155 34.085C16.9155 33.085 15.6155 31.185 14.8155 31.185C14.2155 31.185 13.9155 31.485 13.5155 31.885C13.1155 32.285 12.7155 33.185 12.0155 33.685C11.4155 34.185 9.71547 34.085 9.31547 34.685C8.91547 35.285 9.71547 36.185 9.71547 37.685C9.71547 38.285 9.21547 38.685 9.11547 39.085C9.01547 39.585 8.91547 39.885 9.11547 40.285C9.51547 40.885 10.0155 41.085 13.4155 41.785C15.2155 42.185 16.9155 43.185 18.0155 43.285C19.1155 43.385 21.0155 43.285 21.0155 40.585C21.1155 38.985 20.2155 38.585 19.3155 36.985Z" fill="#FFC107"/>
<path d="M21.2155 18.885C20.6155 18.485 20.1155 18.085 20.1155 17.485C20.1155 16.885 20.5155 16.685 21.1155 16.185C21.2155 16.085 22.3155 15.085 23.4155 15.085C24.5155 15.085 25.8155 15.785 26.3155 15.985C27.2155 16.185 28.1155 16.385 28.0155 17.085C27.9155 18.085 27.8155 18.285 26.8155 18.785C26.1155 18.985 24.8155 20.085 23.9155 20.085C23.5155 20.085 22.9155 20.085 22.5155 19.985C22.2155 19.885 21.7155 19.385 21.2155 18.885Z" fill="#FFC107"/>
<path d="M21.0155 18.085C21.2155 18.285 21.5155 18.485 21.8155 18.585C22.0155 18.685 22.3155 18.785 22.3155 18.785C22.7155 18.785 23.0155 18.785 23.2155 18.785C23.7155 18.785 24.4155 18.585 25.1155 18.185C25.8155 17.885 25.9155 17.685 26.4155 17.485C26.9155 17.185 27.4155 16.885 27.2155 16.785C27.0155 16.685 26.8155 16.785 26.1155 17.185C25.5155 17.585 25.0155 17.785 24.4155 18.085C24.1155 18.185 23.7155 18.385 23.4155 18.385C23.1155 18.385 22.8155 18.385 22.5155 18.385C22.2155 18.385 22.0155 18.285 21.7155 18.185C21.5155 18.085 21.4155 17.985 21.3155 17.985C21.1155 17.885 20.7155 17.485 20.5155 17.385C20.5155 17.385 20.3155 17.385 20.4155 17.485C20.7155 17.785 20.8155 17.885 21.0155 18.085Z" fill="#634703"/>
<path d="M24.0155 15.885C24.1155 16.085 24.3155 16.085 24.4155 16.185C24.5155 16.285 24.6155 16.285 24.6155 16.285C24.7155 16.185 24.6155 15.985 24.5155 15.985C24.5155 15.785 24.0155 15.785 24.0155 15.885Z" fill="#634703"/>
<path d="M22.4155 16.085C22.4155 16.185 22.6155 16.285 22.6155 16.185C22.7155 16.085 22.8155 15.985 22.9155 15.985C23.1155 15.885 23.0155 15.785 22.7155 15.785C22.5155 15.885 22.5155 15.985 22.4155 16.085Z" fill="#634703"/>
<path d="M32.1155 33.785C32.1155 33.885 32.1155 33.985 32.1155 34.085C32.3155 34.485 32.8155 34.585 33.2155 34.585C33.8155 34.585 34.4155 34.185 34.7155 33.785C34.7155 33.685 34.8155 33.585 34.9155 33.485C35.1155 33.185 35.2155 32.985 35.3155 32.885C35.3155 32.885 35.2155 32.785 35.2155 32.685C35.1155 32.485 34.8155 32.285 34.4155 32.185C34.1155 32.085 33.6155 31.985 33.4155 31.985C32.5155 31.885 32.0155 32.185 31.7155 32.485C31.7155 32.485 31.8155 32.485 31.8155 32.585C32.0155 32.785 32.1155 32.985 32.1155 33.285C32.2155 33.485 32.1155 33.585 32.1155 33.785Z" fill="#455A64"/>
</g>
<defs>
<clipPath id="clip0_111_43">
<rect width="50" height="50" fill="white"/>
</clipPath>
</defs>
</svg>
