<svg width="50" height="50" viewBox="0 0 50 50" fill="none" xmlns="http://www.w3.org/2000/svg">
<g clip-path="url(#clip0_108_62)">
<mask id="mask0_108_62" style="mask-type:luminance" maskUnits="userSpaceOnUse" x="0" y="0" width="50" height="50">
<path d="M50 0H0V50H50V0Z" fill="white"/>
</mask>
<g mask="url(#mask0_108_62)">
<path d="M25 50C38.8071 50 50 38.8071 50 25C50 11.1929 38.8071 0 25 0C11.1929 0 0 11.1929 0 25C0 38.8071 11.1929 50 25 50Z" fill="#00618A"/>
<path d="M5 34.0382H6.31778V28.498L8.35783 33.3295C8.59845 33.912 8.92814 34.1212 9.57424 34.1212C10.2203 34.1212 10.5371 33.9142 10.7782 33.3295L12.8184 28.498V34.0403H14.1364V28.5071C14.1364 27.9673 13.9332 27.7063 13.5153 27.5715C12.5143 27.2386 11.8426 27.5265 11.5387 28.2463L9.53674 33.0146L7.59767 28.2442C7.30626 27.5245 6.62208 27.2366 5.6211 27.5694C5.20274 27.7044 5 27.9654 5 28.505V34.0382ZM15.2317 29.5272H16.5491V32.5809C16.5368 32.7469 16.5991 33.1363 17.321 33.1481C17.6893 33.1544 20.1635 33.1481 20.1866 33.1481V29.512H21.5069C21.5128 29.512 21.5056 34.4698 21.5057 34.4911C21.513 35.7138 20.0811 35.9794 19.4214 36H15.2604V35.0556L19.4288 35.0554C20.2768 34.9597 20.1768 34.511 20.1768 34.3598V33.9916H17.376C16.0729 33.9791 15.2432 33.3732 15.2329 32.6763C15.2319 32.6139 15.2606 29.5574 15.2317 29.5272Z" fill="white"/>
<path d="M43.5986 26.008C42.7887 25.9847 42.1697 26.0648 41.6408 26.3024C41.4904 26.37 41.2508 26.3716 41.2262 26.5724C41.3088 26.6645 41.3219 26.8022 41.3873 26.9156C41.5137 27.1334 41.7271 27.4252 41.9172 27.5779C42.125 27.7449 42.339 27.9238 42.5623 28.0688C42.9588 28.3263 43.4014 28.4734 43.783 28.7311C44.008 28.883 44.2314 29.0744 44.451 29.2462C44.5594 29.3311 44.6326 29.4629 44.7732 29.516V29.4914C44.699 29.391 44.6801 29.2528 44.6121 29.1482L44.3127 28.8293C44.0197 28.4133 43.6482 28.052 43.2531 27.7497C42.9381 27.5088 42.2328 27.1835 42.1013 26.7929L42.0783 26.7683C42.3017 26.7413 42.5633 26.6554 42.7697 26.5967C43.116 26.4979 43.4256 26.5233 43.7834 26.4251L44.2672 26.2778V26.1796C44.0863 25.982 43.9574 25.7205 43.7603 25.5419C43.2447 25.0738 42.6816 24.6068 42.1021 24.2168C41.7806 24.0005 41.3834 23.8603 41.0426 23.677C40.9279 23.6154 40.7265 23.5834 40.651 23.4806C40.472 23.2377 40.3746 22.9294 40.2365 22.6486C39.9474 22.0558 39.6635 21.408 39.4072 20.7842C39.2324 20.3588 39.1181 19.9392 38.9006 19.5575C37.8547 17.7261 36.7287 16.6207 34.9849 15.5345C34.6138 15.3036 34.1671 15.2121 33.6949 15.0929L32.9347 15.0438C32.78 14.9751 32.6191 14.7734 32.4738 14.6756C31.896 14.2866 30.4142 13.4415 29.9863 14.5508C29.7161 15.2524 30.39 15.937 30.6312 16.2927C30.8003 16.5423 31.0171 16.8217 31.1378 17.1023C31.2173 17.2866 31.2312 17.4715 31.2992 17.6666C31.4665 18.1451 31.6122 18.6699 31.8288 19.114C31.9382 19.3387 32.0589 19.5754 32.1974 19.7763C32.2824 19.8997 32.4279 19.954 32.4507 20.1445C32.3085 20.3567 32.3003 20.6854 32.2202 20.9541C31.8603 22.1631 31.996 23.6656 32.5197 24.5605C32.6804 24.835 33.0587 25.4241 33.5792 25.1982C34.0343 25.0006 33.9308 24.389 34.063 23.849C34.0923 23.7263 34.0744 23.6369 34.1322 23.5547V23.5792L34.5468 24.4623C34.8535 24.9885 35.3984 25.5387 35.8597 25.9101C36.099 26.1025 36.2894 26.4353 36.5968 26.5478V26.5233H36.5738C36.5138 26.4234 36.4201 26.3825 36.3433 26.3028C36.163 26.1145 35.9625 25.8805 35.8134 25.665C35.3935 25.058 35.0228 24.394 34.6849 23.7024C34.5236 23.3723 34.3832 23.008 34.2474 22.6721C34.1951 22.5425 34.1956 22.3468 34.0863 22.2796C33.9372 22.5259 33.7177 22.7247 33.6025 23.0155C33.4181 23.4802 33.3943 24.0469 33.3261 24.6347C33.2857 24.6501 33.3037 24.6395 33.28 24.6593C32.9593 24.5769 32.8464 24.2251 32.7273 23.9233C32.4257 23.1599 32.3699 21.9314 32.6351 21.0531C32.7035 20.826 33.014 20.11 32.8884 19.9001C32.8285 19.6906 32.6306 19.5673 32.5199 19.4092C32.3831 19.2116 32.246 18.9507 32.1513 18.7223C31.9044 18.1274 31.7892 17.4597 31.5294 16.8579C31.4052 16.5704 31.1954 16.2796 31.0228 16.0258C30.8318 15.7429 30.6179 15.5341 30.47 15.1938C30.4173 15.0721 30.3458 14.8776 30.424 14.7522C30.4314 14.7161 30.4484 14.6831 30.4729 14.657C30.4974 14.6309 30.5284 14.6128 30.5622 14.6049C30.6958 14.4953 31.0681 14.6413 31.2072 14.7031C31.5763 14.8666 31.8849 15.0222 32.1978 15.2429C32.3482 15.3469 32.4999 15.554 32.6814 15.611H32.8884C33.2126 15.6905 33.5759 15.636 33.8787 15.7338C34.4142 15.9071 34.8939 16.1768 35.3298 16.4697C36.6576 17.3625 37.7429 18.6335 38.4855 20.1516C38.605 20.3956 38.6566 20.6288 38.7619 20.8875C38.9742 21.4076 39.2416 21.947 39.4529 22.4574C39.6638 22.9671 39.8689 23.4809 40.167 23.9048C40.3236 24.1274 40.9287 24.2472 41.2035 24.3707C41.3963 24.4575 41.7119 24.548 41.8945 24.6651C42.2431 24.8891 42.581 25.156 42.9082 25.4015C43.0717 25.5242 43.5742 25.7931 43.5992 26.0147L43.5986 26.008Z" fill="white"/>
<path fill-rule="evenodd" clip-rule="evenodd" d="M33.3029 16.6615C33.1339 16.6582 33.0146 16.6811 32.8882 16.7106V16.7352H32.9113C32.9917 16.9116 33.1339 17.0249 33.2335 17.1768L33.464 17.6918L33.4871 17.6673C33.6296 17.5601 33.6951 17.3889 33.6941 17.1275C33.6369 17.0634 33.6285 16.9831 33.5788 16.9066C33.513 16.8046 33.3839 16.7472 33.3029 16.6615Z" fill="white"/>
<path d="M22.5227 34.0382H26.3114C26.7548 34.0382 27.1859 33.9394 27.5282 33.7682C28.0985 33.4895 28.3773 33.1115 28.3773 32.6166V31.5911C28.3773 31.1861 28.0605 30.8084 27.4398 30.5565C27.1103 30.4213 26.7048 30.3495 26.312 30.3495H24.7153C24.1833 30.3495 23.9298 30.1785 23.8665 29.8008C23.8538 29.7558 23.8538 29.7175 23.8538 29.6747V29.0361C23.8538 29.0001 23.8538 28.9639 23.8665 28.919C23.9298 28.6311 24.0692 28.55 24.538 28.503C24.5761 28.503 24.6267 28.4938 24.6649 28.4938H28.4282V27.5584H24.7282C24.196 27.5584 23.9173 27.5943 23.6638 27.6753C22.8774 27.9363 22.5352 28.3523 22.5352 29.0721V29.8908C22.5352 30.5207 23.2071 31.0605 24.3345 31.1863C24.4614 31.1953 24.588 31.2042 24.7145 31.2042H26.0831C26.1339 31.2042 26.1847 31.2042 26.2226 31.2134C26.6405 31.2494 26.8183 31.3303 26.9448 31.4921C27.023 31.5753 27.0464 31.6544 27.0464 31.7417V32.5605C27.0464 32.6595 26.9831 32.7856 26.8564 32.8933C26.7423 33.0015 26.5523 33.0732 26.2987 33.0913C26.248 33.0913 26.2101 33.1003 26.1595 33.1003H22.5227V34.0382ZM36.5978 32.4099C36.5978 33.3726 37.2693 33.9124 38.6252 34.0203C38.7516 34.0308 38.8784 34.0367 39.0052 34.0382H42.4392V33.1026H38.9799C38.207 33.1026 37.9154 32.8956 37.9154 32.4007V27.5602H36.5976L36.5978 32.4099ZM29.2179 32.4586V29.123C29.2179 28.2756 29.7765 27.7616 30.8812 27.5993C30.999 27.5814 31.1178 27.5724 31.2368 27.5723H33.7382C33.8614 27.5724 33.9845 27.5814 34.1066 27.5993C35.2113 27.7616 35.7699 28.2754 35.7699 29.123V32.4586C35.7699 33.146 35.5326 33.514 34.9857 33.7539L36.2837 35.0019H34.7537L33.7035 33.9922L32.6462 34.0636H31.2368C30.9956 34.0636 30.7417 34.0274 30.4622 33.9463C29.6224 33.7029 29.2179 33.234 29.2179 32.4586ZM30.6404 32.3753C30.6404 32.4205 30.6531 32.4654 30.6658 32.5197C30.7439 32.9074 31.0847 33.1238 31.6033 33.1238H32.8005L31.7009 32.0664H33.231L34.188 32.9886C34.3648 32.8883 34.481 32.7348 34.5201 32.5378C34.5328 32.4929 34.5328 32.4477 34.5328 32.4026V29.2044C34.5328 29.1684 34.5328 29.1212 34.5201 29.0781C34.4419 28.7176 34.1009 28.5102 33.5931 28.5102H31.6056C31.0197 28.5102 30.6407 28.7807 30.6407 29.2044V32.3778L30.6404 32.3753Z" fill="#E48E00"/>
</g>
</g>
<defs>
<clipPath id="clip0_108_62">
<rect width="50" height="50" fill="white"/>
</clipPath>
</defs>
</svg>
