<svg width="50" height="50" viewBox="0 0 50 50" fill="none" xmlns="http://www.w3.org/2000/svg">
<g clip-path="url(#clip0_111_8)">
<path d="M25 50C38.8071 50 50 38.8071 50 25C50 11.1929 38.8071 0 25 0C11.1929 0 0 11.1929 0 25C0 38.8071 11.1929 50 25 50Z" fill="white"/>
<path d="M24.9233 6H25.0161C25.4916 6.21535 25.9547 6.45457 26.4035 6.71664C31.5696 9.5416 36.7357 12.3675 41.9019 15.1942C42.1017 15.2957 42.2649 15.4519 42.3703 15.6426C42.4757 15.8333 42.5183 16.0497 42.4928 16.2638C42.4814 22.2209 42.4928 28.1766 42.4857 34.131C42.4184 34.4152 42.2358 34.6625 41.9775 34.8192C36.484 37.8269 30.9901 40.8328 25.4957 43.8369C25.3626 43.9334 25.2021 43.9898 25.0349 43.9987C24.8678 44.0077 24.7016 43.9688 24.5579 43.8871C19.0578 40.8885 13.5629 37.8843 8.07327 34.8748C7.89485 34.7946 7.74542 34.6659 7.64381 34.5051C7.5422 34.3442 7.49297 34.1583 7.50232 33.9709C7.50232 28.0151 7.50232 22.0598 7.50232 16.105C7.48886 15.9183 7.53422 15.7321 7.63262 15.5701C7.73102 15.4082 7.87797 15.2777 8.05471 15.1956C13.2142 12.3742 18.3736 9.5511 23.5331 6.72615C23.9927 6.47641 24.4437 6.21174 24.9233 6Z" fill="#019639"/>
<path d="M14.6734 17.5885C14.6734 22.5009 14.6734 27.4138 14.6734 32.3272C14.6668 32.5993 14.7173 32.8699 14.822 33.1232C14.9266 33.3765 15.0833 33.6075 15.2829 33.8025C15.6655 34.1619 16.166 34.3857 16.7011 34.4366C17.2362 34.4875 17.7734 34.3624 18.2233 34.0821C18.5244 33.8876 18.7709 33.626 18.9413 33.3201C19.1117 33.0142 19.2009 32.6733 19.201 32.3272C19.201 28.7711 19.1939 25.215 19.201 21.659C22.6105 25.5408 26.0272 29.4172 29.4509 33.2881C29.9266 33.7464 30.5157 34.0837 31.1641 34.2691C31.8125 34.4546 32.4995 34.4822 33.1621 34.3495C33.63 34.2619 34.0559 34.0338 34.3773 33.6989C34.6987 33.3639 34.8987 32.9397 34.9477 32.4887C34.9553 27.4749 34.9553 22.4616 34.9477 17.4487C34.8986 16.9136 34.6403 16.4154 34.2239 16.0525C33.8074 15.6896 33.2631 15.4883 32.6982 15.4883C32.1333 15.4883 31.589 15.6896 31.1725 16.0525C30.7561 16.4154 30.4978 16.9136 30.4487 17.4487C30.4487 21.0617 30.4258 24.6708 30.4487 28.2825C27.1001 24.5282 23.7929 20.7414 20.4571 16.9736C20.0173 16.4374 19.4351 16.0224 18.7705 15.7714C18.1058 15.5204 17.3828 15.4425 16.676 15.5458C16.1405 15.6024 15.6442 15.8396 15.2768 16.2144C14.9094 16.5891 14.6954 17.0766 14.6734 17.5885Z" fill="white"/>
</g>
<defs>
<clipPath id="clip0_111_8">
<rect width="50" height="50" fill="white"/>
</clipPath>
</defs>
</svg>
