<svg width="50" height="50" viewBox="0 0 50 50" fill="none" xmlns="http://www.w3.org/2000/svg">
<g clip-path="url(#clip0_108_72)">
<mask id="mask0_108_72" style="mask-type:luminance" maskUnits="userSpaceOnUse" x="0" y="0" width="50" height="50">
<path d="M50 0H0V50H50V0Z" fill="white"/>
</mask>
<g mask="url(#mask0_108_72)">
<path d="M25 50C38.8071 50 50 38.8071 50 25C50 11.1929 38.8071 0 25 0C11.1929 0 0 11.1929 0 25C0 38.8071 11.1929 50 25 50Z" fill="#539E43"/>
<path d="M25 42C24.5342 42 24.0994 41.8751 23.6957 41.6564L19.5652 39.1888C18.9441 38.8452 19.2547 38.7203 19.441 38.6578C20.2795 38.3767 20.4348 38.3142 21.3043 37.8144C21.3975 37.752 21.5217 37.7832 21.6149 37.8457L24.7826 39.751C24.9068 39.8135 25.0621 39.8135 25.1553 39.751L37.5466 32.5356C37.6708 32.4731 37.7329 32.3482 37.7329 32.192V17.7924C37.7329 17.6362 37.6708 17.5113 37.5466 17.4488L25.1553 10.2646C25.0311 10.2021 24.8758 10.2021 24.7826 10.2646L12.3913 17.4488C12.2671 17.5113 12.205 17.6674 12.205 17.7924V32.192C12.205 32.3169 12.2671 32.4731 12.3913 32.5356L15.7764 34.5034C17.6087 35.4405 18.7578 34.3473 18.7578 33.254V19.0418C18.7578 18.8544 18.913 18.667 19.1304 18.667H20.7143C20.9006 18.667 21.087 18.8232 21.087 19.0418V33.254C21.087 35.7216 19.7516 37.1585 17.4224 37.1585C16.7081 37.1585 16.1491 37.1585 14.5652 36.3776L11.3043 34.5034C10.4969 34.0349 10 33.1603 10 32.2232V17.8236C10 16.8865 10.4969 16.0119 11.3043 15.5434L23.6957 8.32797C24.472 7.89068 25.528 7.89068 26.3043 8.32797L38.6957 15.5434C39.5031 16.0119 40 16.8865 40 17.8236V32.2232C40 33.1603 39.5031 34.0349 38.6957 34.5034L26.3043 41.7189C25.9006 41.9063 25.4348 42 25 42ZM28.8199 32.0983C23.3851 32.0983 22.2671 29.5994 22.2671 27.4754C22.2671 27.288 22.4224 27.1006 22.6398 27.1006H24.2547C24.441 27.1006 24.5963 27.2255 24.5963 27.413C24.8447 29.0684 25.559 29.8806 28.8509 29.8806C31.4596 29.8806 32.5776 29.2871 32.5776 27.8815C32.5776 27.0694 32.2671 26.4759 28.1988 26.0698C24.8137 25.7262 22.7019 24.9766 22.7019 22.2591C22.7019 19.729 24.8137 18.2297 28.354 18.2297C32.3292 18.2297 34.2857 19.604 34.5342 22.6027C34.5342 22.6964 34.5031 22.7901 34.441 22.8838C34.3789 22.9463 34.2857 23.0087 34.1925 23.0087H32.5776C32.4224 23.0087 32.2671 22.8838 32.236 22.7276C31.8634 21.0096 30.9006 20.4474 28.354 20.4474C25.4969 20.4474 25.1553 21.4469 25.1553 22.1966C25.1553 23.1024 25.559 23.3836 29.4099 23.8833C33.2298 24.3831 35.0311 25.1015 35.0311 27.7878C35 30.5365 32.764 32.0983 28.8199 32.0983Z" fill="white"/>
</g>
</g>
<defs>
<clipPath id="clip0_108_72">
<rect width="50" height="50" fill="white"/>
</clipPath>
</defs>
</svg>
