<svg width="50" height="50" viewBox="0 0 50 50" fill="none" xmlns="http://www.w3.org/2000/svg">
<g clip-path="url(#clip0_108_79)">
<path d="M25 50C38.8071 50 50 38.8071 50 25C50 11.1929 38.8071 0 25 0C11.1929 0 0 11.1929 0 25C0 38.8071 11.1929 50 25 50Z" fill="#8892BF"/>
<path d="M21.8557 14H24.8557L24.0079 18.5075H26.7036C28.182 18.5391 29.2832 18.8695 30.008 19.4988C30.7471 20.1279 30.9646 21.3239 30.6604 23.0859L29.2037 30.9445H26.1602L27.5514 23.4398C27.6962 22.653 27.6529 22.0946 27.4211 21.7643C27.1893 21.4339 26.6893 21.2688 25.9211 21.2688L23.5079 21.2452L21.7252 30.9445H18.7252L21.8557 14Z" fill="white"/>
<path fill-rule="evenodd" clip-rule="evenodd" d="M8.10879 18.5077H13.935C15.645 18.5232 16.8843 19.0584 17.6525 20.1123C18.4207 21.1664 18.6743 22.6059 18.4134 24.4311C18.3121 25.2652 18.0873 26.083 17.7395 26.8855C17.4061 27.6879 16.9425 28.4114 16.3482 29.0566C15.6234 29.8746 14.848 30.3938 14.022 30.6143C13.1959 30.8346 12.3406 30.9446 11.4567 30.9446H8.84793L8.02182 35.4286H5L8.10879 18.5077ZM9.34795 28.2779L10.648 21.2216H11.0871C11.2467 21.2216 11.4132 21.2136 11.5871 21.198C12.7467 21.1823 13.7102 21.3004 14.4786 21.552C15.2611 21.8036 15.522 22.7555 15.2611 24.4075C14.9425 26.3743 14.3189 27.5227 13.3915 27.853C12.4641 28.1679 11.3045 28.3171 9.91318 28.3014H9.60882C9.52186 28.3014 9.43491 28.2934 9.34795 28.2779Z" fill="white"/>
<path fill-rule="evenodd" clip-rule="evenodd" d="M39.708 18.5077H33.8818L30.773 35.4286H33.7948L34.6211 30.9446H37.2298C38.1138 30.9446 38.9689 30.8346 39.795 30.6143C40.6213 30.3938 41.3964 29.8746 42.1213 29.0566C42.7155 28.4114 43.1791 27.6879 43.5125 26.8855C43.8604 26.083 44.0852 25.2652 44.1864 24.4311C44.4473 22.6059 44.1939 21.1664 43.4255 20.1123C42.6573 19.0584 41.4182 18.5232 39.708 18.5077ZM36.4211 21.2216L35.1211 28.2779C35.208 28.2934 35.295 28.3014 35.382 28.3014H35.6862C37.0777 28.3171 38.2371 28.1679 39.1646 27.853C40.092 27.5227 40.7155 26.3743 41.0343 24.4075C41.2952 22.7555 41.0343 21.8036 40.2516 21.552C39.4834 21.3004 38.5198 21.1823 37.3602 21.198C37.1863 21.2136 37.0198 21.2216 36.8602 21.2216H36.4211Z" fill="white"/>
</g>
<defs>
<clipPath id="clip0_108_79">
<rect width="50" height="50" fill="white"/>
</clipPath>
</defs>
</svg>
