<svg width="50" height="50" viewBox="0 0 50 50" fill="none" xmlns="http://www.w3.org/2000/svg">
<g clip-path="url(#clip0_108_217)">
<path d="M50 25C50 38.8071 38.8071 50 25 50C11.1929 50 0 38.8071 0 25C0 11.1929 11.1929 0 25 0C38.8071 0 50 11.1929 50 25Z" fill="white"/>
<path d="M33.8942 34.9363C34.1304 32.9756 34.0596 32.688 35.5247 33.0056L35.8966 33.0382C37.0231 33.0892 38.4967 32.8575 39.3625 32.4566C41.2261 31.5946 42.3313 30.1553 40.4936 30.5335C36.3018 31.3955 36.0136 29.9806 36.0136 29.9806C40.4399 23.4338 42.2903 15.1232 40.6931 13.0889C36.3369 7.54013 28.7963 10.164 28.6702 10.2322L28.6301 10.2395C27.8019 10.0682 26.8749 9.96586 25.8336 9.94908C23.9367 9.91797 22.4974 10.4448 21.4055 11.2704C21.4055 11.2704 7.95364 5.74579 8.5794 18.2181C8.7125 20.8712 12.3945 38.2944 16.7859 33.0318C18.391 31.1075 19.9421 29.4804 19.9421 29.4804C20.7124 29.9904 21.6345 30.2507 22.6017 30.1572L22.6765 30.0937C22.653 30.3326 22.6634 30.5663 22.7064 30.843C21.5752 32.103 21.9076 32.3243 19.6458 32.7884C17.3575 33.2585 18.7019 34.0955 19.5794 34.3143C20.6435 34.5795 23.1052 34.9553 24.7689 32.6341L24.7027 32.8989C25.1464 33.2528 25.1164 35.4427 25.1794 37.0073C25.2423 38.572 25.3474 40.0321 25.6674 40.8929C25.9873 41.7536 26.3648 43.971 29.3373 43.3359C31.8217 42.8053 33.7212 42.0416 33.8942 34.9363Z" fill="black"/>
<path d="M28.3682 45C27.017 45.0001 26.1347 44.4767 25.598 43.9717C24.7916 43.213 24.4743 42.2443 24.2849 41.6655C24.2552 41.5747 24.2271 41.4891 24.2062 41.4327C23.8263 40.4104 23.698 38.9491 23.6223 37.0697C23.6111 36.7918 23.6028 36.4947 23.5943 36.1915C23.5891 36.0046 23.5831 35.7883 23.5751 35.5618C22.2975 36.1202 20.8003 36.2199 19.2014 35.8214C18.4865 35.6432 17.7452 35.2828 17.284 34.7299C16.0107 35.785 14.8008 35.6299 14.1342 35.4085C12.9444 35.0128 11.8845 33.911 10.894 32.04C10.1955 30.7206 9.52026 29.003 8.8871 26.9349C7.78543 23.3367 7.08564 19.5427 7.02309 18.2958C6.82599 14.3682 7.89159 11.5561 10.1901 9.93758C12.0884 8.60087 14.6836 8.1904 17.9033 8.71726C19.2724 8.9413 20.4577 9.2923 21.1965 9.54122C22.5306 8.75198 24.093 8.36677 25.8593 8.39607C26.8021 8.41126 27.7006 8.49337 28.5363 8.64029C29.4337 8.36286 31.1548 7.97685 33.114 8.00109C36.7879 8.04478 39.8331 9.47315 41.9202 12.1317C43.349 13.9516 42.8179 17.5407 42.1208 20.2312C41.3398 23.2458 39.983 26.4483 38.3145 29.2565C38.7565 29.244 39.3623 29.1802 40.1787 29.0123C42.215 28.593 42.7802 29.7869 42.9047 30.1629C43.536 32.0679 40.8551 33.4786 40.0183 33.8657C38.9596 34.356 37.2357 34.654 35.8256 34.59L35.7604 34.5857L35.507 34.5635L35.4846 34.7549C35.4737 34.8481 35.4623 34.9459 35.4501 35.0482C35.3556 38.6699 34.8328 40.9684 33.7577 42.4945C32.6204 44.1086 31.0482 44.5593 29.6639 44.855C29.1907 44.956 28.7597 45 28.3682 45ZM25.6761 31.686C26.5655 32.3952 26.6421 33.6889 26.7097 36.105C26.7178 36.3951 26.7257 36.6794 26.7364 36.9452C26.7683 37.7347 26.8426 39.5838 27.1287 40.3534C27.1709 40.4671 27.2082 40.581 27.2478 40.7017C27.5707 41.6881 27.7045 42.0963 29.011 41.8173C30.1633 41.5711 30.7538 41.3527 31.2074 40.709C31.8861 39.7455 32.266 37.7907 32.3365 34.8986L33.8942 34.9363L32.3471 34.7513C32.3622 34.6259 32.376 34.5075 32.3891 34.3959C32.5243 33.238 32.631 32.3235 33.46 31.7331C33.9832 31.3605 34.5715 31.3109 35.0818 31.3572C34.6607 30.9292 34.5274 30.4903 34.4866 30.29L34.3567 29.6523L34.7215 29.1127C36.6527 26.2565 38.2476 22.7449 39.0973 19.4783C39.9644 16.1451 39.7201 14.3794 39.466 14.0464C36.0027 9.63519 29.9762 11.436 29.312 11.6527L29.1956 11.7156L28.6123 11.8226L28.3135 11.7608C27.5555 11.604 26.7127 11.5171 25.8085 11.5025C24.4047 11.4806 23.2728 11.8085 22.3473 12.5083L21.6366 13.0456L20.812 12.7069C19.1992 12.0499 14.465 10.726 11.9841 12.4783C10.6176 13.4434 9.99573 15.3485 10.1359 18.1407C10.1843 19.1073 10.8428 22.7355 11.9288 26.2248C13.4211 31.0196 14.738 32.3514 15.1122 32.4599C15.159 32.4403 15.3249 32.3542 15.5881 32.0387C17.2074 30.0973 18.7479 28.4785 18.8127 28.4106L19.7144 27.4647L20.8047 28.1868C21.1799 28.4353 21.5921 28.5802 22.0156 28.6147L24.6031 26.4171L24.2275 30.2452C24.2204 30.3175 24.2172 30.4168 24.2464 30.6056L24.3592 31.3316L23.8677 31.8791C23.8632 31.884 23.8588 31.889 23.8545 31.8938L25.0632 32.4499L25.6761 31.686Z" fill="black"/>
<path d="M40.4936 30.5335C36.3018 31.3955 36.0136 29.9806 36.0136 29.9806C40.4399 23.4338 42.2903 15.1232 40.6931 13.0889C36.3369 7.54013 28.7963 10.164 28.6702 10.2322L28.6301 10.2395C27.8019 10.0682 26.8749 9.96586 25.8336 9.94908C23.9367 9.91797 22.4974 10.4448 21.4055 11.2704C21.4055 11.2704 7.95364 5.74579 8.5794 18.2181C8.7125 20.8712 12.3945 38.2944 16.7859 33.0318C18.391 31.1075 19.9421 29.4804 19.9421 29.4804C20.7124 29.9904 21.6345 30.2507 22.6017 30.1572L22.6765 30.0937C22.653 30.3326 22.6634 30.5663 22.7064 30.843C21.5752 32.103 21.9076 32.3243 19.6458 32.7884C17.3575 33.2585 18.7019 34.0955 19.5794 34.3143C20.6435 34.5795 23.1052 34.9553 24.7689 32.6341L24.7027 32.8989C25.1459 33.2528 25.4567 35.2012 25.4045 36.9674C25.3524 38.7336 25.3181 39.9458 25.6674 40.8929C26.0167 41.84 26.3643 43.971 29.3373 43.3359C31.8217 42.8053 33.109 41.4302 33.288 39.1361C33.4151 37.5052 33.7027 37.7463 33.7209 36.2882L33.9516 35.5979C34.2176 33.3871 33.9941 32.6739 35.5247 33.0056L35.8966 33.0382C37.0231 33.0892 38.4967 32.8575 39.3625 32.4566C41.2261 31.5946 42.3313 30.1553 40.4936 30.5335Z" fill="#336791"/>
<path d="M21.3358 19.7722C21.3118 19.9417 21.6469 20.3936 22.0838 20.454C22.5201 20.5147 22.8934 20.1614 22.9171 19.9922C22.9407 19.8228 22.6061 19.6362 22.1689 19.5756C21.7325 19.5148 21.3589 19.6032 21.3358 19.7722Z" fill="white"/>
<path fill-rule="evenodd" clip-rule="evenodd" d="M32.9547 19.659C32.9831 19.8594 33.3462 20.2017 33.7762 20.2017C33.8124 20.2017 33.8492 20.1993 33.886 20.1942C34.173 20.1546 34.3837 19.9729 34.4837 19.8682C34.6361 19.7086 34.7241 19.5307 34.708 19.415C34.672 19.1578 34.2122 19.0841 33.7768 19.1448C33.3416 19.2052 32.9194 19.4011 32.9547 19.659Z" fill="white"/>
<path fill-rule="evenodd" clip-rule="evenodd" d="M33.9153 39.6555C33.4767 42.1914 32.3429 43.3417 29.7322 43.8997C29.2878 43.9947 28.8837 44.0372 28.5167 44.0372C26.0153 44.0374 25.2232 42.0636 24.8991 41.2559C24.5034 40.2695 24.3658 37.0325 24.3936 33.747C23.4912 34.56 22.3615 34.9787 21.0786 34.9788C20.551 34.9788 19.9978 34.908 19.4235 34.7647C19.2586 34.7236 17.8122 34.3365 17.8314 33.4148C17.8491 32.5713 19.0563 32.3231 19.5111 32.2295C21.1092 31.9015 21.2127 31.7708 21.7091 31.1424L21.7106 31.1406C21.8107 31.0138 21.9276 30.8659 22.0707 30.6968C22.0691 30.678 22.0676 30.6592 22.0664 30.6404C21.3496 30.6212 20.6484 30.4319 20.0106 30.0905C19.5775 30.5499 18.4075 31.8095 17.1555 33.3111C16.4006 34.2157 15.6751 34.4817 15.0833 34.4817C14.842 34.4817 14.623 34.4375 14.4331 34.3744C12.8108 33.835 11.269 31.2128 9.85066 26.5807C8.77301 23.0614 8.09036 19.3866 8.03041 18.1918C7.85226 14.6412 8.77134 12.128 10.7623 10.7219C14.3243 8.20622 20.0782 10.1348 21.3404 10.6058C22.5797 9.76323 24.0772 9.35201 25.8118 9.37911C26.7566 9.39455 27.6252 9.51489 28.4212 9.71227C28.8038 9.54581 30.7505 8.96053 33.0548 8.98463C36.4112 9.02015 39.1838 10.3109 41.0731 12.7173C42.3479 14.3413 41.5065 18.295 41.0856 19.9195C40.2102 23.2982 38.5886 26.9211 36.6159 29.917C36.9163 30.1362 37.8267 30.4955 40.3597 29.9744C41.2145 29.7982 41.7289 29.9535 41.8888 30.4353C42.1975 31.3662 40.4952 32.438 39.5519 32.8747C38.7124 33.2634 37.3735 33.5091 36.213 33.5091C35.6569 33.5092 35.1417 33.4527 34.7421 33.3285C34.5527 35.0647 34.1499 38.3005 33.9153 39.6555ZM25.8637 40.8713C25.5174 40.0079 25.3473 36.1147 25.4679 31.8152C25.4694 31.759 25.4618 31.7035 25.4458 31.6507C25.432 31.5504 25.4105 31.4489 25.3812 31.3468C25.2016 30.7213 24.7639 30.198 24.2388 29.981C24.0302 29.8949 23.6473 29.7368 23.1871 29.8542C23.2852 29.451 23.4555 28.996 23.64 28.5031L23.7174 28.2959C23.8045 28.0625 23.9139 27.82 24.0295 27.564C24.6544 26.18 25.5102 24.2846 24.5814 20.0024C24.2333 18.3986 23.0709 17.615 21.3104 17.7973C20.2545 17.9062 19.2886 18.3309 18.8068 18.5744C18.7035 18.6266 18.608 18.6772 18.5198 18.7263C18.6543 17.1101 19.1627 14.0902 21.0629 12.1797C22.2595 10.9767 23.8534 10.3823 25.7948 10.4146C29.6205 10.4772 32.0738 12.4343 33.4585 14.0652C34.6515 15.4706 35.2976 16.8862 35.5554 17.6498C33.6166 17.4532 32.2978 17.8349 31.6293 18.7875C30.1749 20.8599 32.4249 24.8823 33.5062 26.8153L33.5087 26.8197C33.7059 27.1722 33.876 27.4763 33.9295 27.6059C34.2815 28.4566 34.7375 29.0246 35.0704 29.4391L35.0735 29.443C35.1743 29.5686 35.2722 29.6905 35.3466 29.797C34.7588 29.966 33.7019 30.3556 33.8003 32.3095C33.7212 33.2989 33.1712 37.8647 32.8917 39.4796C32.522 41.6168 31.733 42.413 29.5146 42.8871C27.2148 43.3786 26.4004 42.2086 25.8637 40.8713ZM9.06801 18.14C8.90879 14.9674 9.68027 12.7563 11.361 11.5681C14.0947 9.63542 18.5892 10.7907 20.3981 11.3781C17.4317 14.3648 17.4268 19.545 17.434 19.8527C17.4338 19.9724 17.4439 20.1422 17.4576 20.374L17.4579 20.3777C17.5088 21.2357 17.6036 22.8316 17.3501 24.6389C17.1144 26.3192 17.6338 27.9637 18.7754 29.1509C18.8935 29.2738 19.0165 29.3896 19.1438 29.4981C18.6351 30.0412 17.531 31.2406 16.3567 32.649C15.5251 33.6458 14.9505 33.4548 14.7618 33.392C13.5311 32.9827 12.1033 30.3899 10.8443 26.2783C9.75494 22.7207 9.11837 19.1432 9.06801 18.14ZM33.1846 10.0224C36.1919 10.0886 38.5707 11.2101 40.255 13.3555C41.5468 15.0013 40.1246 22.4892 36.0066 28.9491C35.966 28.8975 35.924 28.8453 35.8812 28.7919C35.8643 28.7709 35.8472 28.7495 35.8299 28.7279C36.8944 26.9758 36.6855 25.2421 36.5002 23.7051C36.4241 23.0744 36.3523 22.4788 36.3705 21.9194C36.3894 21.3271 36.4679 20.8193 36.5438 20.3282L36.5443 20.3243C36.6381 19.7169 36.7349 19.0898 36.7079 18.3483C36.7265 18.2718 36.7337 18.1816 36.7236 18.0753C36.6567 17.3663 35.8448 15.2448 34.1897 13.3242C33.2847 12.274 31.9649 11.0985 30.1626 10.3056C30.9378 10.1455 31.9979 9.99631 33.1846 10.0224ZM34.4133 26.3108C33.5112 24.6983 31.3988 20.9219 32.4802 19.3811C33.0365 18.5884 34.4457 18.5542 35.6728 18.705C35.6642 19.2177 35.5924 19.6824 35.5173 20.1682L35.5171 20.1696C35.4365 20.6914 35.3531 21.2311 35.3321 21.886C35.3114 22.5236 35.3912 23.1863 35.4685 23.8273L35.4686 23.8287C35.6249 25.1246 35.7857 26.4588 35.1647 27.7753C35.0681 27.6044 34.9751 27.4174 34.8896 27.2108C34.8125 27.0246 34.6453 26.7256 34.4138 26.3117L34.4133 26.3108ZM36.5546 32.4665C35.5001 32.5156 34.9636 32.3488 34.8372 32.2461C34.7779 31.0317 35.2316 30.9046 35.7114 30.7702L35.7136 30.7696C35.7883 30.7487 35.8612 30.7283 35.9315 30.7038C35.9782 30.7416 36.0267 30.777 36.0769 30.8099C36.9244 31.3675 38.4361 31.4278 40.5699 30.9887L40.5934 30.984C40.3056 31.2521 39.8131 31.6123 39.1146 31.9355C38.5142 32.2134 37.5093 32.4218 36.5546 32.4665ZM19.6755 33.7601C19.3899 33.6889 19.1331 33.5654 18.9824 33.463C19.1083 33.404 19.3322 33.3237 19.7206 33.2438C21.6008 32.8579 21.891 32.5856 22.5251 31.7831C22.6705 31.5992 22.8357 31.3903 23.0637 31.1363C23.4036 30.7573 23.5592 30.8214 23.8411 30.9378C24.0696 31.0322 24.2921 31.3176 24.3824 31.6319C24.425 31.7802 24.473 32.0619 24.3161 32.281C22.9915 34.1299 21.0614 34.1058 19.6755 33.7601ZM19.5254 28.4344C18.6055 27.4776 18.1876 26.1465 18.379 24.7823C18.6468 22.8729 18.5479 21.2091 18.4948 20.3152L18.4929 20.283C18.4863 20.1713 18.4805 20.073 18.4769 19.994C18.91 19.6112 20.9177 18.539 22.3491 18.8659C23.0025 19.015 23.4005 19.4585 23.566 20.2213C24.4226 24.1703 23.6794 25.8162 23.0823 27.1388C22.9593 27.4111 22.8428 27.6691 22.7436 27.9354L22.6667 28.1411C22.4719 28.6617 22.2905 29.1466 22.1781 29.6062C21.2002 29.6034 20.2489 29.1868 19.5254 28.4344Z" fill="white"/>
</g>
<defs>
<clipPath id="clip0_108_217">
<rect width="50" height="50" fill="white"/>
</clipPath>
</defs>
</svg>
