<svg width="50" height="50" viewBox="0 0 50 50" fill="none" xmlns="http://www.w3.org/2000/svg">
<g clip-path="url(#clip0_108_287)">
<path d="M25 50C38.8071 50 50 38.8071 50 25C50 11.1929 38.8071 0 25 0C11.1929 0 0 11.1929 0 25C0 38.8071 11.1929 50 25 50Z" fill="black"/>
<path d="M25 28.4035C26.969 28.4035 28.5652 26.8073 28.5652 24.8383C28.5652 22.8693 26.969 21.2731 25 21.2731C23.031 21.2731 21.4348 22.8693 21.4348 24.8383C21.4348 26.8073 23.031 28.4035 25 28.4035Z" fill="#7BDEFF"/>
<path fill-rule="evenodd" clip-rule="evenodd" d="M7.95561 22.6406C7.09505 23.4174 6.73913 24.1615 6.73913 24.8383C6.73913 25.515 7.09505 26.2592 7.95561 27.036C8.81607 27.8128 10.11 28.5521 11.7829 29.1909C15.1228 30.4661 19.7955 31.2731 25 31.2731C30.2045 31.2731 34.8772 30.4661 38.2171 29.1909C39.89 28.5521 41.1839 27.8128 42.0444 27.036C42.9049 26.2592 43.2609 25.515 43.2609 24.8383C43.2609 24.1615 42.9049 23.4174 42.0444 22.6406C41.1839 21.8638 39.89 21.1244 38.2171 20.4857C34.8772 19.2105 30.2045 18.4035 25 18.4035C19.7955 18.4035 15.1228 19.2105 11.7829 20.4857C10.11 21.1244 8.81607 21.8638 7.95561 22.6406ZM11.1626 18.861C14.7466 17.4925 19.6391 16.6644 25 16.6644C30.3609 16.6644 35.2534 17.4925 38.8374 18.861C40.6264 19.544 42.1341 20.3786 43.2097 21.3496C44.2853 22.3206 45 23.498 45 24.8383C45 26.1786 44.2853 27.356 43.2097 28.3269C42.1341 29.2979 40.6264 30.1325 38.8374 30.8156C35.2534 32.184 30.3609 33.0122 25 33.0122C19.6391 33.0122 14.7466 32.184 11.1626 30.8156C9.37355 30.1325 7.8659 29.2979 6.79025 28.3269C5.7147 27.356 5 26.1786 5 24.8383C5 23.498 5.7147 22.3206 6.79025 21.3496C7.8659 20.3786 9.37355 19.544 11.1626 18.861Z" fill="#7BDEFF"/>
<path fill-rule="evenodd" clip-rule="evenodd" d="M18.3811 8.97855C17.278 8.62171 16.4556 8.68554 15.8696 9.02391C15.2835 9.36228 14.817 10.0426 14.5745 11.1763C14.3321 12.3098 14.3387 13.8001 14.622 15.5683C15.1876 19.0983 16.8251 23.5484 19.4273 28.0557C22.0296 32.5629 25.0648 36.2061 27.8391 38.4609C29.2287 39.5903 30.516 40.3412 31.6189 40.698C32.722 41.0549 33.5444 40.991 34.1304 40.6527C34.7165 40.3143 35.183 39.634 35.4255 38.5003C35.6679 37.3668 35.6613 35.8765 35.378 34.1083C34.8124 30.5783 33.1749 26.1281 30.5727 21.6209C27.9704 17.1136 24.9352 13.4705 22.1609 11.2157C20.7713 10.0862 19.484 9.33536 18.3811 8.97855ZM23.2578 9.86606C26.2349 12.2857 29.3984 16.1086 32.0788 20.7513C34.7593 25.394 36.4883 30.0451 37.0952 33.8332C37.3982 35.7241 37.4292 37.447 37.1261 38.8641C36.8231 40.281 36.1607 41.4886 35 42.1588C33.8393 42.8289 32.4622 42.7987 31.0836 42.3527C29.7049 41.9067 28.2283 41.0183 26.7422 39.8105C23.7651 37.3909 20.6016 33.5679 17.9212 28.9252C15.2407 24.2825 13.5117 19.6314 12.9048 15.8434C12.6018 13.9525 12.5708 12.2295 12.8739 10.8125C13.1769 9.39559 13.8393 8.18793 15 7.51778C16.1607 6.84763 17.5378 6.87786 18.9164 7.32386C20.2951 7.76989 21.7717 8.65827 23.2578 9.86606Z" fill="#7BDEFF"/>
<path fill-rule="evenodd" clip-rule="evenodd" d="M35.4255 11.1763C35.183 10.0426 34.7165 9.36228 34.1304 9.02391C33.5444 8.68554 32.722 8.62171 31.6189 8.97855C30.516 9.33536 29.2287 10.0862 27.8391 11.2157C25.0648 13.4705 22.0296 17.1136 19.4273 21.6209C16.825 26.1281 15.1876 30.5783 14.622 34.1083C14.3387 35.8765 14.3321 37.3668 14.5745 38.5003C14.817 39.634 15.2835 40.3143 15.8696 40.6527C16.4556 40.991 17.278 41.0549 18.3811 40.698C19.484 40.3412 20.7713 39.5903 22.1609 38.4609C24.9352 36.2061 27.9704 32.5629 30.5727 28.0557C33.1749 23.5484 34.8124 19.0983 35.378 15.5682C35.6613 13.8001 35.6679 12.3098 35.4255 11.1763ZM37.0952 15.8434C36.4883 19.6314 34.7593 24.2825 32.0788 28.9252C29.3984 33.5679 26.2349 37.3909 23.2578 39.8105C21.7717 41.0183 20.2951 41.9067 18.9164 42.3527C17.5378 42.7987 16.1607 42.8289 15 42.1588C13.8393 41.4886 13.1769 40.281 12.8739 38.8641C12.5708 37.447 12.6018 35.7241 12.9048 33.8332C13.5117 30.0451 15.2407 25.394 17.9212 20.7513C20.6016 16.1086 23.7651 12.2857 26.7422 9.86606C28.2283 8.65827 29.7049 7.76989 31.0836 7.32386C32.4622 6.87786 33.8393 6.84763 35 7.51778C36.1607 8.18793 36.8231 9.39559 37.1261 10.8125C37.4292 12.2295 37.3982 13.9525 37.0952 15.8434Z" fill="#7BDEFF"/>
</g>
<defs>
<clipPath id="clip0_108_287">
<rect width="50" height="50" fill="white"/>
</clipPath>
</defs>
</svg>
