<svg width="50" height="50" viewBox="0 0 50 50" fill="none" xmlns="http://www.w3.org/2000/svg">
<g clip-path="url(#clip0_108_84)">
<mask id="mask0_108_84" style="mask-type:luminance" maskUnits="userSpaceOnUse" x="0" y="0" width="50" height="50">
<path d="M50 0H0V50H50V0Z" fill="white"/>
</mask>
<g mask="url(#mask0_108_84)">
<path fill-rule="evenodd" clip-rule="evenodd" d="M25 0C29.9445 0 34.778 1.46622 38.8892 4.21326C43.0005 6.96029 46.2048 10.8648 48.097 15.4329C49.9892 20.0011 50.4843 25.0277 49.5196 29.8773C48.555 34.7268 46.174 39.1813 42.6777 42.6777C39.1813 46.174 34.7268 48.555 29.8773 49.5196C25.0277 50.4843 20.0011 49.9892 15.4329 48.097C10.8648 46.2048 6.96029 43.0005 4.21326 38.8892C1.46622 34.778 0 29.9445 0 25C0 18.3696 2.63392 12.0107 7.32233 7.32233C12.0107 2.63392 18.3696 0 25 0Z" fill="#CD6799"/>
<path d="M40.6797 10.7528C39.5483 6.30674 32.1904 4.85095 25.2268 7.32256C20.8658 8.79113 16.8366 11.1072 13.3699 14.1383C9.53476 17.733 8.92264 20.8628 9.17427 22.1701C10.0666 26.7843 16.3716 29.7996 18.9646 32.0369V32.0494C18.2008 32.4268 12.6043 35.2686 11.2908 38.1658C9.90953 41.2276 11.5103 43.4238 12.5722 43.7189C14.1664 44.1035 15.8408 43.9784 17.3604 43.3609C18.88 42.7435 20.1687 41.6648 21.0455 40.2762C21.7701 39.1511 22.2235 37.8724 22.3697 36.5414C22.5159 35.2104 22.3509 33.8635 21.8878 32.6074C23.1368 32.2893 24.4351 32.2147 25.7122 32.3874C30.0952 32.9007 30.9554 35.6424 30.7912 36.7905C30.714 37.1992 30.5499 37.5865 30.31 37.9259C30.0701 38.2654 29.7601 38.5491 29.401 38.7578C29.0941 38.9492 28.9995 39.0135 29.0263 39.1566C29.0637 39.3623 29.2047 39.3551 29.467 39.3104C30.1257 39.1025 30.7061 38.6996 31.1317 38.1546C31.5573 37.6096 31.8082 36.9483 31.8513 36.2576C31.9566 33.5749 29.385 30.5596 24.8306 30.6365C23.5079 30.5987 22.188 30.78 20.9241 31.1731C20.8617 31.1015 20.7974 31.03 20.7314 30.9585C17.9153 27.9485 12.7114 25.8185 12.9309 21.7713C13.0112 20.2994 13.5216 16.4257 22.9247 11.7257C30.6342 7.87519 36.8054 8.93573 37.8726 11.2839C39.3966 14.639 34.5746 20.8717 26.5688 21.7713C25.684 21.9513 24.77 21.9294 23.8948 21.7071C23.0196 21.4848 22.2055 21.0678 21.513 20.4872C21.0919 20.0222 21.0294 20.0025 20.8724 20.0884C20.6172 20.2297 20.7796 20.641 20.8724 20.8842C21.1789 21.4379 21.5927 21.9246 22.0895 22.3159C22.5862 22.7071 23.156 22.995 23.7652 23.1627C26.9129 23.8481 30.196 23.5227 33.1487 22.2327C38.0046 20.3566 41.7916 15.1255 40.6797 10.7528ZM20.0425 33.414C20.397 34.6385 20.379 35.9412 19.9908 37.1554C19.9491 37.2817 19.9033 37.4069 19.8534 37.5309C19.8034 37.6549 19.7493 37.7742 19.691 37.8886C19.3906 38.5044 19.0016 39.0727 18.5363 39.5751C17.0854 41.1615 15.0563 41.7624 14.1872 41.2562C13.2485 40.7108 13.7179 38.4734 15.4008 36.6904C16.6939 35.4089 18.1847 34.3449 19.8159 33.5392L20.0425 33.414Z" fill="white"/>
</g>
</g>
<defs>
<clipPath id="clip0_108_84">
<rect width="50" height="50" fill="white"/>
</clipPath>
</defs>
</svg>
