<svg width="50" height="50" viewBox="0 0 50 50" fill="none" xmlns="http://www.w3.org/2000/svg">
<path d="M25 50C38.8071 50 50 38.8071 50 25C50 11.1929 38.8071 0 25 0C11.1929 0 0 11.1929 0 25C0 38.8071 11.1929 50 25 50Z" fill="white"/>
<path fill-rule="evenodd" clip-rule="evenodd" d="M25 14C19.9333 14 16.7667 16.5556 15.5 21.6667C17.4 19.1111 19.6167 18.1528 22.15 18.7917C23.5954 19.1558 24.6284 20.2143 25.772 21.3848C27.6347 23.2923 29.7908 25.5 34.5 25.5C39.5667 25.5 42.7333 22.9444 44 17.8333C42.1 20.3889 39.8833 21.3472 37.35 20.7083C35.9046 20.3442 34.8716 19.2857 33.728 18.1152C31.8653 16.2077 29.7092 14 25 14ZM15.5 25.5C10.4333 25.5 7.26667 28.0556 6 33.1667C7.9 30.6111 10.1167 29.6528 12.65 30.2917C14.0954 30.6565 15.1284 31.7143 16.272 32.8848C18.1347 34.7923 20.2908 37 25 37C30.0667 37 33.2333 34.4444 34.5 29.3333C32.6 31.8889 30.3833 32.8472 27.85 32.2083C26.4046 31.8442 25.3716 30.7857 24.228 29.6152C22.3653 27.7077 20.2092 25.5 15.5 25.5Z" fill="#38BDF8"/>
</svg>
