<svg width="50" height="50" viewBox="0 0 50 50" fill="none" xmlns="http://www.w3.org/2000/svg">
<g clip-path="url(#clip0_108_118)">
<path d="M0 25C0 11.1929 11.1929 0 25 0C38.8071 0 50 11.1929 50 25C50 38.8071 38.8071 50 25 50C11.1929 50 0 38.8071 0 25Z" fill="#3178C6"/>
<path fill-rule="evenodd" clip-rule="evenodd" d="M29.2595 36.145V40.029C29.8837 40.3527 30.622 40.5954 31.4744 40.7572C32.3267 40.9191 33.225 41 34.1694 41C35.797 41 37.5787 40.7645 38.9712 39.853C40.3568 38.9459 41 37.4369 41 35.8051C41 34.5919 40.6279 33.4245 39.7875 32.5402C38.5274 31.2142 36.7565 30.6765 35.1657 29.8881C34.3688 29.4932 33.269 28.8801 33.269 27.8429C33.269 27.5759 33.3371 27.3352 33.4731 27.1208C34.0202 26.2585 35.2353 26.083 36.1622 26.083C37.2143 26.083 38.3244 26.3212 39.3014 26.7626C39.6415 26.9164 39.9556 27.0944 40.2437 27.2967V23.6676C39.6595 23.441 39.0213 23.2731 38.329 23.1639C37.6367 23.0546 36.8424 23 35.9461 23C35.0337 23 34.1694 23.0992 33.3531 23.2974C32.5368 23.4956 31.8185 23.8051 31.1982 24.2259C30.578 24.6467 30.0879 25.1827 29.7277 25.8341C29.3676 26.4855 29.1875 27.2643 29.1875 28.1706C29.1875 29.3277 29.5176 30.3149 30.1779 31.1322C30.8381 31.9494 31.8405 32.6413 33.185 33.2077C34.0895 33.5818 35.03 33.9511 35.844 34.5064C36.4082 34.8912 36.9184 35.4279 36.9184 36.1571C36.9184 36.6863 36.6226 37.135 36.1922 37.4133C35.5553 37.8252 34.7397 37.917 34.0012 37.917C33.1689 37.917 32.3447 37.7694 31.5283 37.474C30.7121 37.1787 29.9558 36.7357 29.2595 36.145ZM22.8041 26.5753H27.7301V23.3879H14V26.5753H18.9019V40.7672H22.8041V26.5753Z" fill="white"/>
</g>
<defs>
<clipPath id="clip0_108_118">
<rect width="50" height="50" fill="white"/>
</clipPath>
</defs>
</svg>
