<svg width="50" height="50" viewBox="0 0 50 50" fill="none" xmlns="http://www.w3.org/2000/svg">
<g clip-path="url(#clip0_108_91)">
<mask id="mask0_108_91" style="mask-type:luminance" maskUnits="userSpaceOnUse" x="0" y="0" width="50" height="50">
<path d="M50 0H0V50H50V0Z" fill="white"/>
</mask>
<g mask="url(#mask0_108_91)">
<path fill-rule="evenodd" clip-rule="evenodd" d="M25 0C29.9445 0 34.778 1.46622 38.8892 4.21326C43.0005 6.96029 46.2048 10.8648 48.097 15.4329C49.9892 20.0011 50.4843 25.0277 49.5196 29.8773C48.555 34.7268 46.174 39.1813 42.6777 42.6777C39.1813 46.174 34.7268 48.555 29.8773 49.5196C25.0277 50.4843 20.0011 49.9892 15.4329 48.097C10.8648 46.2048 6.96029 43.0005 4.21326 38.8892C1.46622 34.778 0 29.9445 0 25C0 18.3696 2.63392 12.0107 7.32233 7.32233C12.0107 2.63392 18.3696 0 25 0Z" fill="white"/>
<path d="M41.2021 35.2812L25.8061 44V37.2196L35.4019 31.9352L41.2021 35.2812ZM42.256 34.3305V16.1117L36.6253 19.3619V31.0803L42.256 34.3305ZM9.05392 35.2812L24.45 43.9926V37.2122L14.8542 31.9352L9.05392 35.2812ZM8 34.3305V16.1117L13.6307 19.3619V31.0803L8 34.3305ZM8.65593 14.9325L24.45 6V12.5593L14.3309 18.1237L14.2498 18.168L8.65593 14.9325ZM41.5927 14.9325L25.8061 6V12.5593L35.9178 18.1311L35.9988 18.1753L41.5927 14.9325Z" fill="#8ED6FB"/>
<path d="M24.45 35.6718L14.9868 30.4612V20.1505L24.45 25.6117V35.6718ZM25.8061 35.6718L35.2692 30.4686V20.1505L25.8061 25.6117V35.6718ZM15.6206 18.9566L25.128 13.7312L34.628 18.9566L25.128 24.4399L15.6206 18.9566Z" fill="#1C78C0"/>
</g>
</g>
<defs>
<clipPath id="clip0_108_91">
<rect width="50" height="50" fill="white"/>
</clipPath>
</defs>
</svg>
