<svg width="50" height="50" viewBox="0 0 50 50" fill="none" xmlns="http://www.w3.org/2000/svg">
<g clip-path="url(#clip0_108_99)">
<mask id="mask0_108_99" style="mask-type:luminance" maskUnits="userSpaceOnUse" x="0" y="0" width="50" height="50">
<path d="M50 0H0V50H50V0Z" fill="white"/>
</mask>
<g mask="url(#mask0_108_99)">
<path d="M25 50C38.8071 50 50 38.8071 50 25C50 11.1929 38.8071 0 25 0C11.1929 0 0 11.1929 0 25C0 38.8071 11.1929 50 25 50Z" fill="#00769D"/>
<path fill-rule="evenodd" clip-rule="evenodd" d="M19.8454 37.773L12.3485 15.2821C13.1226 15.2414 13.8967 15.16 14.6301 15.0785C15.4042 14.9565 15.4856 14.3859 15.4449 14.1009C15.4042 13.856 15.16 13.3269 14.508 13.4083C12.512 13.5712 10.7188 13.6525 9.04844 13.6525C8.84485 13.6525 8.59994 13.6525 8.39644 13.6525C12.0228 8.35582 18.0936 4.85236 25.0207 4.85236C30.0317 4.85236 34.595 6.68551 38.1393 9.74129C37.0389 9.9448 35.8991 10.719 35.572 11.8194C34.5951 14.9973 36.5097 17.0754 37.4066 18.4601C38.3836 20.0083 38.7514 21.6794 38.9141 23.4312C39.1177 25.8756 38.0986 28.9721 37.4473 31.3359L35.3278 37.6509L27.8716 15.2821C28.6464 15.2414 29.4198 15.16 30.1539 15.0785C30.968 14.9565 31.0088 14.3859 30.968 14.1009C30.968 13.856 30.7238 13.3676 30.0318 13.4083C28.0345 13.6119 26.2827 13.6525 24.6123 13.6525C22.942 13.6525 21.1495 13.6119 19.1527 13.4083C18.5007 13.3676 18.2565 13.856 18.2158 14.1009C18.2158 14.3859 18.2565 14.9565 19.0306 15.0785C19.7233 15.16 20.4568 15.2414 21.1494 15.2821L24.4087 24.1645L19.8454 37.773ZM45.1478 25.0207C45.1478 32.2312 41.3172 38.5871 35.572 42.1327L40.2589 28.7685C41.1951 26.2419 42.2548 23.6753 42.8654 21.0273C43.1911 19.5605 43.3553 18.0937 43.3147 16.5861C44.4951 19.1527 45.1478 22.005 45.1478 25.0207ZM25.0207 45.1478C23.0233 45.1478 21.1494 44.8628 19.3569 44.3323L25.265 26.6096L31.6614 44.0066C29.5419 44.7393 27.3423 45.1478 25.0207 45.1478ZM15.6899 42.8654C9.25199 39.4841 4.85227 32.7619 4.85227 25.0207C4.85227 22.2899 5.38145 19.7233 6.35904 17.3602L15.6899 42.8654ZM25.0207 2C12.3078 2 2 12.3078 2 25.0207C2 37.6916 12.3078 48 25.0207 48C37.6916 48 48 37.6916 48 25.0207C48 12.3078 37.6916 2 25.0207 2Z" fill="white"/>
</g>
</g>
<defs>
<clipPath id="clip0_108_99">
<rect width="50" height="50" fill="white"/>
</clipPath>
</defs>
</svg>
